<?xml version='1.0' encoding='UTF-8' standalone='no'?>
<svg
  xmlns:dc="http://purl.org/dc/elements/1.1/"
  xmlns:cc="http://creativecommons.org/ns#"
  xmlns:rdf="http://www.w3.org/1999/02/22-rdf-syntax-ns#"
  xmlns:svg="http://www.w3.org/2000/svg"
  xmlns="http://www.w3.org/2000/svg"
  height="1.2598519in"
  x="0in"
  y="0in"
  width="1.3622082in"
  viewBox="0 0 1362.2086 1259.8524"
  version="1.2"
  id="svg1035">
  <metadata
    id="metadata318">
    <rdf:RDF>
      <cc:Work
        rdf:about="">
        <dc:format>image/svg+xml</dc:format>
        <dc:type
          rdf:resource="http://purl.org/dc/dcmitype/StillImage"
        />
        <dc:title/>
      </cc:Work>
    </rdf:RDF>
  </metadata>
  <defs
    id="defs316"
  />
  <g
    id="breadboard">
    <path
      id="path824"
      d="M 0,0 V 1259.8523 H 1362.2087 V 0 Z M 98.429787,53.385654 A 56.852476,56.852476 0 0 1 155.2741,110.22997 56.852476,56.852476 0 0 1 98.429787,167.09464 56.852476,56.852476 0 0 1 41.565126,110.22997 56.852476,56.852476 0 0 1 98.429787,53.385654 Z m 1165.349213,0 a 56.852476,56.852476 0 0 1 56.8646,56.844316 56.852476,56.852476 0 0 1 -56.8646,56.86467 56.852476,56.852476 0 0 1 -56.8444,-56.86467 56.852476,56.852476 0 0 1 56.8444,-56.844316 z M 98.429787,1092.7577 a 56.852476,56.852476 0 0 1 56.844313,56.8444 56.852476,56.852476 0 0 1 -56.844313,56.8646 56.852476,56.852476 0 0 1 -56.864661,-56.8646 56.852476,56.852476 0 0 1 56.864661,-56.8444 z m 1165.349213,0 a 56.852476,56.852476 0 0 1 56.8646,56.8444 56.852476,56.852476 0 0 1 -56.8646,56.8646 56.852476,56.852476 0 0 1 -56.8444,-56.8646 56.852476,56.852476 0 0 1 56.8444,-56.8444 z"
      display="inline"
      fill="#2f8a5b"
      stroke-width="14.2914"
    />
    <rect
      id="rect8079"
      width="67.909256"
      height="130.90157"
      x="1122.7164"
      y="934.27124"
      fill="none"
      stroke="#ffffff"
      stroke-width="6.89411"
      stroke-linecap="round"
      stroke-miterlimit="4"
      stroke-dasharray="none"
      stroke-opacity="1"
    />
    <rect
      id="rect8077"
      width="67.909256"
      height="130.90157"
      x="1022.7162"
      y="934.27124"
      fill="none"
      stroke="#ffffff"
      stroke-width="6.89411"
      stroke-linecap="round"
      stroke-miterlimit="4"
      stroke-dasharray="none"
      stroke-opacity="1"
    />
    <rect
      id="rect8075"
      width="67.909256"
      height="130.90157"
      x="922.71594"
      y="934.27124"
      fill="none"
      stroke="#ffffff"
      stroke-width="6.89411"
      stroke-linecap="round"
      stroke-miterlimit="4"
      stroke-dasharray="none"
      stroke-opacity="1"
    />
    <rect
      id="rect7848"
      width="67.909256"
      height="130.90157"
      x="822.71576"
      y="934.27124"
      fill="none"
      stroke="#ffffff"
      stroke-width="6.89411"
      stroke-linecap="round"
      stroke-miterlimit="4"
      stroke-dasharray="none"
      stroke-opacity="1"
    />
    <path
      d="m 1090.741,246.81354 c 1.9486,0 3.6188,1.2527 3.6188,3.47975 0,2.22702 -1.8094,3.20136 -3.6188,3.61893 l -47.1854,13.91898 c -1.6702,0 -3.4797,-1.3919 -3.4797,-3.34055 a 4.0365046,4.0365046 0 0 1 3.4797,-3.75813 l 8.3514,-2.64461 v -15.17169 l -8.3514,-2.6446 c -1.6702,0 -3.4797,-1.67029 -3.4797,-3.75813 0,-2.08785 1.8095,-3.89731 3.4797,-3.47975 z m -12.9447,3.61893 v 0 l -19.3474,-5.5676 v 10.85681 z"
      id="path1118"
      fill="#ffffff"
      stroke-width="13.919"
    />
    <path
      d="m 1094.3598,390.65212 v 19.48657 c 0,10.16086 -6.2634,14.89331 -16.1459,14.89331 a 13.918981,13.918981 0 0 1 -10.996,-4.59326 15.450069,15.450069 0 0 1 -12.6663,4.59326 13.918981,13.918981 0 0 1 -13.919,-14.89331 v -19.48657 z m -47.3244,6.95949 v 12.52708 c 0,5.01083 2.227,7.93382 7.5162,7.93382 5.2892,0 9.1865,-1.67028 9.1865,-7.93382 v -12.52708 z m 23.6623,0 v 12.52708 c 0,5.01083 2.227,7.93382 7.5162,7.93382 5.2892,0 9.1865,-1.67028 9.1865,-7.93382 v -12.52708 z"
      id="path1222"
      fill="#ffffff"
      stroke-width="13.919"
    />
    <path
      d="m 1040.036,566.82032 a 10.439236,10.439236 0 0 1 6.6812,-10.43923 l 12.9446,-6.40274 a 16.424398,16.424398 0 0 1 7.2379,-1.80947 15.450069,15.450069 0 0 1 7.7946,1.94866 l 12.8054,6.40273 a 10.439236,10.439236 0 0 1 6.8203,10.71762 v 11.83113 a 3.4797544,3.4797544 0 0 1 -6.9594,0 v -11.69194 c 0,-2.92299 0,-3.47974 -2.9231,-4.73245 l -12.1094,-6.12436 a 11.135185,11.135185 0 0 0 -5.2892,-1.3919 9.3257174,9.3257174 0 0 0 -4.7325,1.3919 l -12.1095,5.98517 c -2.7838,1.3919 -3.0622,2.08784 -3.0622,5.15001 v 11.41357 a 3.2013657,3.2013657 0 0 1 -3.4797,3.47975 3.3405554,3.3405554 0 0 1 -3.4798,-3.47975 z"
      id="path1224"
      fill="#ffffff"
      stroke-width="13.919"
    />
    <path
      d="m 1087.3815,712.05787 v -2.22705 c 0,-2.22704 0,-4.17569 3.4798,-4.17569 3.4797,0 3.4797,1.80946 3.4797,4.0365 v 11.55276 a 10.578425,10.578425 0 0 1 -6.9595,10.57842 l -12.3878,6.12435 a 16.285208,16.285208 0 0 1 -8.073,2.08785 16.563587,16.563587 0 0 1 -7.6555,-2.08785 l -12.6663,-6.26354 a 10.717616,10.717616 0 0 1 -6.5419,-10.99599 v -11.55276 a 3.47975,3.47975 0 0 1 6.9595,0 v 3.34056 z m -40.365,6.95948 v 1.2527 c 0,2.923 0,3.61894 2.923,4.87164 l 12.3878,6.12436 a 9.3257174,9.3257174 0 0 0 4.5934,1.3919 11.970323,11.970323 0 0 0 5.7068,-1.80947 l 11.8311,-5.70679 c 2.9229,-1.53108 2.9229,-2.08783 2.9229,-5.2892 v -0.83511 z"
      id="path1226"
      display="inline"
      fill="#ffffff"
      stroke-width="13.919"
    />
    <path
      id="path8103"
      d="m 1255.8005,232.56715 c -8.1759,-33.22977 -37.9567,-56.60279 -72.1774,-56.64753 -34.0104,0.30219 -63.4895,23.62052 -71.6141,56.64753 m 0.083,36.04841 c 8.3036,32.80666 37.6936,55.88224 71.5336,56.16473 33.84,-0.28251 63.2301,-23.35802 71.5336,-56.16473"
      fill="none"
      stroke="#ffffff"
      stroke-width="5.83911"
      stroke-linecap="round"
      stroke-miterlimit="4"
      stroke-dasharray="none"
      stroke-opacity="1"
    />
    <path
      id="path8542"
      d="m 1255.8005,390.63849 c -8.1759,-33.22977 -37.9567,-56.60278 -72.1774,-56.64752 -34.0104,0.30219 -63.4895,23.62051 -71.6141,56.64752 m 0.083,36.0484 c 8.3036,32.80669 37.6936,55.88226 71.5336,56.16475 33.84,-0.2825 63.2301,-23.35802 71.5336,-56.16475"
      fill="none"
      stroke="#ffffff"
      stroke-width="5.83911"
      stroke-linecap="round"
      stroke-miterlimit="4"
      stroke-dasharray="none"
      stroke-opacity="1"
    />
    <path
      id="path8544"
      d="m 1255.8005,547.75049 c -8.1759,-33.22976 -37.9567,-56.60278 -72.1774,-56.64752 -34.0104,0.30219 -63.4895,23.62052 -71.6141,56.64752 m 0.083,36.04842 c 8.3036,32.80667 37.6936,55.88225 71.5336,56.16473 33.84,-0.2825 63.2301,-23.35802 71.5336,-56.16473"
      fill="none"
      stroke="#ffffff"
      stroke-width="5.83911"
      stroke-linecap="round"
      stroke-miterlimit="4"
      stroke-dasharray="none"
      stroke-opacity="1"
    />
    <path
      id="path8546"
      d="m 1255.8005,705.82185 c -8.1759,-33.22977 -37.9567,-56.60278 -72.1774,-56.64752 -34.0104,0.30219 -63.4895,23.62051 -71.6141,56.64752 m 0.083,36.0484 c 8.3036,32.80668 37.6936,55.88224 71.5336,56.16473 33.84,-0.2825 63.2301,-23.35801 71.5336,-56.16473"
      fill="none"
      stroke="#ffffff"
      stroke-width="5.83911"
      stroke-linecap="round"
      stroke-miterlimit="4"
      stroke-dasharray="none"
      stroke-opacity="1"
    />
    <path
      id="line924"
      d="M 172.44677,904.09833 H 288.19529 M 176.26895,196.10644 H 284.37309 V 1187.9619 H 176.26895 Z"
      display="inline"
      fill="none"
      stroke="#ffffff"
      stroke-width="8.4714"
      stroke-miterlimit="10"
    />
    <rect
      x="374.93961"
      y="996.93982"
      width="410.17261"
      height="109.8018"
      id="rect914"
      ry="0"
      display="inline"
      fill="none"
      stroke="#ffffff"
      stroke-width="7.87897"
      stroke-miterlimit="10"
      stroke-dasharray="none"
    />
    <rect
      x="410.55063"
      y="1169.4542"
      width="38.694767"
      height="8.0730085"
      id="rect926-3"
      display="inline"
      fill="#ffffff"
      stroke-width="13.919"
    />
    <path
      id="polygon928"
      d="m 511.66456,1169.3846 v 8.073 h 13.77979 v 14.6149 h 8.073 v -14.6149 h 14.61493 v -8.073 h -14.61493 v -14.4758 h -8.073 v 14.4758 z"
      display="inline"
      fill="#ffffff"
      stroke-width="13.9189"
    />
    <path
      d="m 622.17727,1167.2272 a 11.332604,12.666272 0 0 1 1.36987,6.2635 12.453411,13.918981 0 0 1 -1.61894,6.5419 l -4.60777,10.3 a 6.6003077,7.37706 0 0 1 -12.4534,0 l -4.48324,-10.3 a 13.200615,14.75412 0 0 1 -1.61894,-6.5419 11.332604,12.666272 0 0 1 1.36987,-6.2635 l 4.98137,-10.9961 a 6.3512395,7.0986803 0 0 1 12.45341,0 z m -9.21553,-8.3515 c 0,-0.8351 -0.7472,-1.6703 -1.74348,-1.6703 -0.99627,0 -1.24534,0.8352 -1.74348,1.6703 l -4.48322,10.0217 a 8.2192512,9.1865276 0 0 0 -1.12081,4.5933 7.3475124,8.2121989 0 0 0 0.87174,3.6189 l 4.73229,10.5784 c 0,0.8351 0.74721,1.6703 1.74348,1.6703 0.99628,0 1.36988,-0.8352 1.74348,-1.6703 l 4.73229,-10.5784 a 7.3475124,8.2121989 0 0 0 0.87175,-3.6189 8.2192512,9.1865276 0 0 0 -1.12082,-4.5933 z"
      id="path945"
      isolation="isolate"
      fill="#ffffff"
      stroke-width="13.1658"
    />
    <path
      d="m 646.95955,1154.4216 c 0,-1.8094 0,-2.7838 2.49068,-2.7838 a 2.241614,2.5054166 0 0 1 2.49068,2.7838 v 40.5043 h -6.60031 l -12.4534,-33.4056 v 0 30.6218 c 0,1.8094 -0.62268,2.7838 -2.49069,2.7838 a 2.241614,2.5054166 0 0 1 -2.49068,-2.7838 v -40.5043 h 6.60031 l 12.45341,33.8232 v 0 z"
      id="path947"
      isolation="isolate"
      fill="#ffffff"
      stroke-width="13.1658"
    />
    <path
      d="m 660.65831,1192.9772 c -0.62268,1.1135 -1.24535,1.9487 -2.49069,1.9487 a 2.4906822,2.7837962 0 0 1 -2.49068,-2.6446 5.9776372,6.6811109 0 0 1 1.12081,-2.923 l 18.30651,-35.6326 c 0,-1.1135 1.1208,-2.0879 2.36615,-2.0879 a 2.366148,2.6446064 0 0 1 2.49068,2.6446 3.1133527,3.4797453 0 0 1 -0.62267,2.0879 z"
      id="path949"
      isolation="isolate"
      fill="#ffffff"
      stroke-width="13.1658"
    />
    <path
      d="m 707.35859,1167.2272 a 11.332604,12.666272 0 0 1 1.36988,6.2635 12.453411,13.918981 0 0 1 -1.61895,6.5419 l -4.60775,10.3 a 6.6003077,7.37706 0 0 1 -12.45342,0 l -4.60776,-10.3 a 12.453411,13.918981 0 0 1 -1.61895,-6.5419 11.332604,12.666272 0 0 1 1.36988,-6.2635 l 4.98136,-10.9961 a 6.3512395,7.0986803 0 0 1 12.45342,0 z m -9.21553,-8.3515 c 0,-0.8351 -0.7472,-1.6703 -1.74347,-1.6703 -0.99627,0 -1.24534,0.8352 -1.74348,1.6703 l -4.48323,10.0217 a 8.2192512,9.1865276 0 0 0 -1.1208,4.5933 7.3475124,8.2121989 0 0 0 0.87174,3.6189 l 4.73229,10.5784 c 0,0.8351 0.74721,1.6703 1.74348,1.6703 0.99627,0 1.36987,-0.8352 1.74347,-1.6703 l 4.73231,-10.5784 a 7.3475124,8.2121989 0 0 0 0.87173,-3.6189 8.2192512,9.1865276 0 0 0 -1.1208,-4.5933 z"
      id="path951"
      isolation="isolate"
      fill="#ffffff"
      stroke-width="13.1658"
    />
    <path
      d="m 712.4645,1151.6378 h 22.16706 a 2.4906928,2.783808 0 0 1 0,5.5676 h -17.1857 v 8.6299 h 12.45341 a 2.241614,2.5054166 0 0 1 2.49068,2.7838 2.366148,2.6446064 0 0 1 -2.49068,2.7837 h -12.45341 v 20.7393 c 0,1.8094 0,2.7838 -2.49069,2.7838 a 2.241614,2.5054166 0 0 1 -2.49067,-2.7838 z"
      id="path953"
      isolation="isolate"
      fill="#ffffff"
      stroke-width="13.1658"
    />
    <path
      d="m 740.85827,1151.6378 h 22.16707 a 2.4906928,2.783808 0 0 1 0,5.5676 h -17.18571 v 8.6299 h 12.45342 a 2.241614,2.5054166 0 0 1 2.49068,2.7838 2.366148,2.6446064 0 0 1 -2.49068,2.7837 h -12.45342 v 20.7393 c 0,1.8094 0,2.7838 -2.49068,2.7838 a 2.241614,2.5054166 0 0 1 -2.49068,-2.7838 z"
      id="path955"
      isolation="isolate"
      fill="#ffffff"
      stroke-width="13.1658"
    />
    <path
      d="m 229.7643,963.89515 v 10.30005 a 5.9851618,5.9851618 0 0 1 -1.5311,4.45408 5.4284026,5.4284026 0 0 1 -4.73245,1.67027 h -11.97032 a 5.5675924,5.5675924 0 0 1 -4.31489,-1.39189 5.150023,5.150023 0 0 1 -1.80946,-4.73246 v -12.38789 a 8.9081479,8.9081479 0 0 1 0.97433,-3.75812 l 0.97432,-2.08785 c 0.69596,-1.53109 1.11353,-3.20137 3.06218,-3.20137 a 2.7837962,2.7837962 0 0 1 2.7838,2.7838 3.7581249,3.7581249 0 0 1 0,1.67027 l -0.69595,1.67029 a 8.0730091,8.0730091 0 0 0 -1.11352,3.06217 v 12.80546 h 13.91899 v -16.42439 h 23.38388 v 19.20819 a 2.6446064,2.6446064 0 0 1 -2.7838,2.78379 2.5054166,2.5054166 0 0 1 -2.78379,-2.78379 v -13.91898 z"
      id="path932"
      fill="#ffffff"
      isolation="isolate"
      stroke-width="13.9189"
    />
    <path
      d="m 230.32105,1013.1683 c 0,2.2271 -0.83513,3.3406 -3.34055,3.3406 -2.50542,0 -3.34056,-1.1135 -3.34056,-3.3406 v -13.0838 c 0,-2.22703 0.83514,-3.34054 3.34056,-3.34054 2.50542,0 3.34055,1.11351 3.34055,3.34054 z"
      id="path934"
      fill="#ffffff"
      isolation="isolate"
      stroke-width="13.9189"
    />
    <path
      d="m 210.97367,1054.9253 h 11.13519 a 2.7838,2.7838 0 1 1 0,5.5676 h -13.91898 a 2.5054166,2.5054166 0 0 1 -2.7838,-2.7839 v -21.9919 a 2.5054166,2.5054166 0 0 1 2.7838,-2.7838 2.6446064,2.6446064 0 0 1 2.78379,2.7838 v 8.2122 h 32.15285 v -8.2122 a 2.5054166,2.5054166 0 0 1 2.78379,-2.7838 2.6446064,2.6446064 0 0 1 2.7838,2.7838 v 13.919 h -37.72044 z"
      id="path936"
      fill="#ffffff"
      isolation="isolate"
      stroke-width="13.9189"
    />
    <path
      d="m 210.97367,1078.5876 v 19.2082 a 2.6446064,2.6446064 0 0 1 -2.78379,2.7838 2.5054166,2.5054166 0 0 1 -2.7838,-2.7838 V 1073.02 h 18.09467 a 5.5675924,5.5675924 0 0 1 6.26355,6.4027 v 15.3109 h 13.91898 v -19.2082 a 2.5054166,2.5054166 0 0 1 2.7838,-2.7838 2.6446064,2.6446064 0 0 1 2.78378,2.7838 v 19.2082 a 5.7067822,5.7067822 0 0 1 -6.54191,6.2636 h -11.41357 a 5.7067822,5.7067822 0 0 1 -6.54192,-6.2636 v -15.7285 z"
      id="path938"
      fill="#ffffff"
      isolation="isolate"
      stroke-width="13.9189"
    />
    <path
      d="m 237.00217,1135.0987 h 8.90814 a 2.7837962,2.7837962 0 1 1 0,5.5675 h -8.76896 a 5.7067822,5.7067822 0 0 1 -2.22704,0 l -27.14201,-10.7175 c -1.39189,0 -2.36622,-0.9745 -2.36622,-2.7839 0,-1.8095 0.97433,-2.2271 2.36622,-2.7838 l 27.14201,-10.5784 a 5.7067822,5.7067822 0 0 1 2.22704,0 h 8.76896 a 2.5054166,2.5054166 0 0 1 2.7838,2.7838 c 0,2.0878 -0.97433,2.7838 -2.7838,2.7838 h -8.90814 l -21.29604,8.2121 z"
      id="path940"
      fill="#ffffff"
      isolation="isolate"
      stroke-width="13.9189"
    />
    <path
      d="m 62.581138,862.88674 h 8.212198 a 2.5054166,2.5054166 0 0 1 2.783796,2.7838 2.6446064,2.6446064 0 0 1 -2.783796,2.7838 h -21.99199 a 2.6446064,2.6446064 0 0 1 -2.783796,-2.7838 2.5054166,2.5054166 0 0 1 2.783796,-2.7838 h 8.212199 v -32.43122 h -8.212199 a 2.6446064,2.6446064 0 0 1 -2.783796,-2.7838 2.5054166,2.5054166 0 0 1 2.783796,-2.7838 h 21.99199 a 2.5054166,2.5054166 0 0 1 2.783796,2.7838 2.6446064,2.6446064 0 0 1 -2.783796,2.7838 h -8.212198 z"
      id="path906"
      fill="#ffffff"
      isolation="isolate"
      stroke-width="13.9189"
    />
    <path
      d="m 108.09621,827.67172 c 0,-1.80946 0.69595,-2.7838 2.7838,-2.7838 a 2.5054166,2.5054166 0 0 1 2.78379,2.7838 v 40.50424 h -7.37706 L 91.671809,835.04878 v 0 30.62176 c 0,1.80947 0,2.7838 -2.7838,2.7838 a 2.5054166,2.5054166 0 0 1 -2.7838,-2.7838 v -40.78262 h 7.37707 l 13.918981,33.68394 v 0 z"
      id="path908"
      fill="#ffffff"
      isolation="isolate"
      stroke-width="13.9189"
    />
    <path
      d="m 131.75848,830.45552 a 2.7838,2.7838 0 1 1 -5.5676,0 v -2.7838 a 2.7837962,2.7837962 0 0 1 2.7838,-2.7838 h 24.77579 v 16.14602 c 0,1.94867 0,2.08786 -1.5311,3.47975 l -7.79463,6.68111 a 3.2013656,3.2013656 0 0 0 -1.53108,3.34056 v 10.8568 a 2.5054166,2.5054166 0 0 1 -2.7838,2.7838 c -2.08785,0 -2.7838,-0.97434 -2.7838,-2.7838 v -13.91898 c 0,-1.80947 0,-1.94866 1.39191,-3.20137 l 7.65544,-6.54192 c 1.94865,-1.67027 1.80946,-1.53108 1.80946,-4.0365 v -7.65544 z"
      id="path910"
      fill="#ffffff"
      isolation="isolate"
      stroke-width="13.9189"
    />
    <path
      d="m 62.581138,765.45388 h 8.212198 a 2.7837962,2.7837962 0 1 1 0,5.56759 h -21.99199 a 2.7837962,2.7837962 0 0 1 0,-5.56759 h 8.212199 v -32.15285 h -8.212199 a 2.7838,2.7838 0 0 1 0,-5.5676 h 21.99199 a 2.7838,2.7838 0 1 1 0,5.5676 h -8.212198 z"
      id="path898"
      fill="#ffffff"
      isolation="isolate"
      stroke-width="13.9189"
    />
    <path
      d="m 108.09621,730.51723 c 0,-1.80946 0.69595,-2.7838 2.7838,-2.7838 a 2.5054166,2.5054166 0 0 1 2.78379,2.7838 v 40.50424 h -7.37706 L 91.671809,737.61591 v 0 30.62176 c 0,1.80948 0,2.7838 -2.7838,2.7838 a 2.5054166,2.5054166 0 0 1 -2.7838,-2.7838 v -40.50424 h 7.37707 l 13.918981,33.82313 v 0 z"
      id="path900"
      fill="#ffffff"
      isolation="isolate"
      stroke-width="13.9189"
    />
    <path
      d="m 131.75848,751.53489 h 18.65143 c 2.7838,0 3.34056,1.25272 3.34056,3.75813 v 12.52708 c 0,2.64461 -1.11352,3.47975 -3.61894,3.47975 h -20.32171 c -2.64461,0 -3.61894,-0.97433 -3.61894,-3.47975 v -37.30287 c 0,-1.2527 0,-2.7838 2.36623,-2.7838 h 3.34056 a 2.7837962,2.7837962 0 0 1 2.6446,2.7838 2.6446064,2.6446064 0 0 1 -2.78379,2.7838 z m 0,5.5676 v 8.35139 h 16.42439 v -8.62977 z"
      id="path902"
      fill="#ffffff"
      isolation="isolate"
      stroke-width="13.9189"
    />
    <path
      d="m 62.581138,668.02101 h 8.212198 a 2.7837962,2.7837962 0 0 1 0,5.56759 h -21.99199 a 2.7837962,2.7837962 0 0 1 0,-5.56759 h 8.212199 v -32.43122 h -8.212199 a 2.6446064,2.6446064 0 0 1 -2.783796,-2.7838 2.5054166,2.5054166 0 0 1 2.783796,-2.7838 h 21.99199 a 2.5054166,2.5054166 0 0 1 2.783796,2.7838 2.6446064,2.6446064 0 0 1 -2.783796,2.7838 h -8.212198 z"
      id="path890"
      fill="#ffffff"
      isolation="isolate"
      stroke-width="13.9189"
    />
    <path
      d="m 108.09621,632.80599 c 0,-1.80948 0.69595,-2.7838 2.7838,-2.7838 a 2.5054166,2.5054166 0 0 1 2.78379,2.7838 v 40.50424 h -7.37706 L 91.671809,640.18305 v 0 30.62176 c 0,1.80946 0,2.78379 -2.7838,2.78379 a 2.5054166,2.5054166 0 0 1 -2.7838,-2.78379 v -40.78262 h 7.37707 l 13.918981,33.82313 v 0 z"
      id="path892"
      fill="#ffffff"
      isolation="isolate"
      stroke-width="13.9189"
    />
    <path
      d="m 137.32606,648.81282 h 10.02167 a 5.2892128,5.2892128 0 0 1 4.45407,1.67027 5.150023,5.150023 0 0 1 1.80948,4.73245 v 11.83114 a 5.7067822,5.7067822 0 0 1 -6.26355,6.26355 h -12.2487 a 8.9081479,8.9081479 0 0 1 -3.75813,-0.97434 l -2.08784,-0.97433 c -1.53109,-0.69594 -3.20137,-1.11351 -3.20137,-3.06217 a 2.7837962,2.7837962 0 0 1 2.64461,-2.7838 3.8973147,3.8973147 0 0 1 1.80946,0 h 1.67029 a 12.527083,12.527083 0 0 0 2.92298,1.11352 h 12.94465 v -12.52708 h -16.2852 v -24.07984 h 19.20819 a 2.5054166,2.5054166 0 0 1 2.7838,2.7838 2.6446064,2.6446064 0 0 1 -2.7838,2.7838 h -13.91898 z"
      id="path894"
      fill="#ffffff"
      isolation="isolate"
      stroke-width="13.9189"
    />
    <path
      d="m 62.581138,566.07881 h 8.212198 a 2.783798,2.783798 0 0 1 0,5.56759 h -21.99199 a 2.783798,2.783798 0 0 1 0,-5.56759 h 8.212199 v -32.15285 h -8.212199 a 2.783798,2.783798 0 0 1 0,-5.56759 h 21.99199 a 2.783798,2.783798 0 1 1 0,5.56759 h -8.212198 z"
      id="path882"
      fill="#ffffff"
      isolation="isolate"
      stroke-width="13.9189"
    />
    <path
      d="m 108.09621,531.14217 c 0,-1.80947 0.69595,-2.7838 2.7838,-2.7838 a 2.5054166,2.5054166 0 0 1 2.78379,2.7838 v 40.50423 h -7.37706 L 91.671809,538.24085 v 0 30.62176 c 0,1.80946 0,2.78379 -2.7838,2.78379 a 2.5054166,2.5054166 0 0 1 -2.7838,-2.78379 v -40.36505 h 7.37707 l 13.918981,33.82313 v 0 z"
      id="path884"
      fill="#ffffff"
      isolation="isolate"
      stroke-width="13.9189"
    />
    <path
      d="m 145.39908,551.88145 v -16.00683 a 2.783798,2.783798 0 0 1 5.56759,0 v 16.00683 a 2.6446064,2.6446064 0 0 1 2.7838,2.92299 2.5054166,2.5054166 0 0 1 -2.7838,2.6446 v 11.41357 a 2.5054166,2.5054166 0 0 1 -2.7838,2.78379 c -2.08784,0 -2.78379,-0.97433 -2.78379,-2.78379 v -11.41357 h -16.4244 v -26.30687 a 2.783798,2.783798 0 1 1 5.56759,0 v 20.73928 z"
      id="path886"
      fill="#ffffff"
      isolation="isolate"
      stroke-width="13.9189"
    />
    <path
      d="m 62.598675,466.07839 h 8.212199 a 2.7838,2.7838 0 1 1 0,5.5676 h -21.99199 a 2.7838,2.7838 0 1 1 0,-5.5676 h 8.212199 v -32.15284 h -8.212199 a 2.6446064,2.6446064 0 0 1 -2.783796,-2.7838 2.5054166,2.5054166 0 0 1 2.783796,-2.7838 h 21.99199 a 2.5054166,2.5054166 0 0 1 2.783796,2.7838 2.6446064,2.6446064 0 0 1 -2.783796,2.7838 h -8.212199 z"
      id="path874"
      fill="#ffffff"
      isolation="isolate"
      stroke-width="13.9189"
    />
    <path
      d="m 108.11375,431.14175 c 0,-1.80947 0.69594,-2.7838 2.78379,-2.7838 a 2.5054166,2.5054166 0 0 1 2.78379,2.7838 v 40.50424 h -7.37706 L 91.689349,438.24043 v 0 30.62176 c 0,1.80946 0,2.7838 -2.7838,2.7838 a 2.5054166,2.5054166 0 0 1 -2.7838,-2.7838 v -40.50424 h 7.37707 l 13.918981,33.82313 v 0 z"
      id="path876"
      fill="#ffffff"
      isolation="isolate"
      stroke-width="13.9189"
    />
    <path
      d="m 128.99222,433.92555 a 2.6446064,2.6446064 0 0 1 -2.7838,-2.7838 2.5054166,2.5054166 0 0 1 2.7838,-2.7838 h 19.20819 a 5.4284026,5.4284026 0 0 1 5.56759,5.5676 v 10.71761 a 5.9851618,5.9851618 0 0 1 -2.22704,5.28921 6.4027313,6.4027313 0 0 1 2.22704,5.42841 v 10.71761 a 5.4284026,5.4284026 0 0 1 -5.56759,5.5676 h -19.20819 a 2.7838,2.7838 0 0 1 0,-5.5676 h 19.20819 v -9.18653 c 0,-3.20137 -1.25271,-4.17569 -2.78379,-4.17569 h -10.99601 a 2.5054166,2.5054166 0 0 1 -2.78378,-2.7838 2.6446064,2.6446064 0 0 1 2.78378,-2.7838 h 10.99601 c 1.53108,0 2.78379,-0.83513 2.78379,-4.0365 v -9.18652 z"
      id="path878"
      fill="#ffffff"
      isolation="isolate"
      stroke-width="13.9189"
    />
    <path
      d="m 62.598675,366.35141 h 8.212199 a 2.6446064,2.6446064 0 0 1 2.783796,2.7838 2.5054166,2.5054166 0 0 1 -2.783796,2.78379 h -21.99199 a 2.5054166,2.5054166 0 0 1 -2.783796,-2.78379 2.6446064,2.6446064 0 0 1 2.783796,-2.7838 h 8.212199 v -32.15285 h -8.212199 a 2.5054166,2.5054166 0 0 1 -2.783796,-2.78379 2.6446064,2.6446064 0 0 1 2.783796,-2.7838 h 21.99199 a 2.6446064,2.6446064 0 0 1 2.783796,2.7838 2.5054166,2.5054166 0 0 1 -2.783796,2.78379 h -8.212199 z"
      id="path866"
      fill="#ffffff"
      isolation="isolate"
      stroke-width="13.9189"
    />
    <path
      d="m 108.11375,331.41477 a 2.5054166,2.5054166 0 0 1 2.78379,-2.7838 2.5054166,2.5054166 0 0 1 2.78379,2.7838 V 371.919 h -7.37706 L 92.385289,338.51345 h -0.69594 v 30.62176 c 0,1.80947 0,2.78379 -2.7838,2.78379 a 2.5054166,2.5054166 0 0 1 -2.7838,-2.78379 v -40.50424 h 7.37707 l 13.918981,33.82312 v 0 z"
      id="path868"
      fill="#ffffff"
      isolation="isolate"
      stroke-width="13.9189"
    />
    <path
      d="m 131.77602,366.35141 h 19.20818 a 2.6446064,2.6446064 0 0 1 2.7838,2.7838 2.5054166,2.5054166 0 0 1 -2.7838,2.78379 h -24.77578 v -18.09467 a 5.5675924,5.5675924 0 0 1 6.26354,-6.26354 h 15.72845 v -13.91898 h -19.20819 a 2.5054166,2.5054166 0 0 1 -2.7838,-2.7838 2.6446064,2.6446064 0 0 1 2.7838,-2.7838 h 18.37305 a 5.9851618,5.9851618 0 0 1 6.26354,6.54192 v 11.41356 a 5.845972,5.845972 0 0 1 -6.26354,6.54193 h -15.58925 z"
      id="path870"
      fill="#ffffff"
      isolation="isolate"
      stroke-width="13.9189"
    />
    <path
      d="m 62.581138,278.28954 h 8.212198 a 2.6446064,2.6446064 0 0 1 2.783796,2.7838 2.5054166,2.5054166 0 0 1 -2.783796,2.78379 h -21.99199 a 2.5054166,2.5054166 0 0 1 -2.783796,-2.78379 2.6446064,2.6446064 0 0 1 2.783796,-2.7838 h 8.212199 v -32.8488 h -8.212199 a 2.5054166,2.5054166 0 0 1 -2.783796,-2.78379 2.6446064,2.6446064 0 0 1 2.783796,-2.7838 h 21.99199 a 2.6446064,2.6446064 0 0 1 2.783796,2.7838 2.5054166,2.5054166 0 0 1 -2.783796,2.78379 h -8.212198 z"
      id="path858"
      fill="#ffffff"
      isolation="isolate"
      stroke-width="13.9189"
    />
    <path
      d="m 108.09621,242.65695 a 2.5054166,2.5054166 0 0 1 2.7838,-2.7838 2.5054166,2.5054166 0 0 1 2.78379,2.7838 v 40.50423 h -7.37706 l -14.614931,-32.7096 v 0 30.48257 c 0,1.80946 0,2.78379 -2.7838,2.78379 a 2.5054166,2.5054166 0 0 1 -2.7838,-2.78379 v -41.061 h 7.37707 l 13.918981,33.82313 v 0 z"
      id="path860"
      fill="#ffffff"
      isolation="isolate"
      stroke-width="13.9189"
    />
    <path
      d="m 148.18287,278.28954 v -11.13518 a 2.7838,2.7838 0 1 1 5.5676,0 v 13.91898 a 2.5054166,2.5054166 0 0 1 -2.7838,2.78379 h -21.99199 a 2.5054166,2.5054166 0 0 1 -2.7838,-2.78379 2.6446064,2.6446064 0 0 1 2.7838,-2.7838 h 8.2122 v -32.8488 h -8.2122 a 2.5054166,2.5054166 0 0 1 -2.7838,-2.78379 2.6446064,2.6446064 0 0 1 2.7838,-2.7838 h 13.91898 v 38.41639 z"
      id="path862"
      fill="#ffffff"
      isolation="isolate"
      stroke-width="13.9189"
    />
    <rect
      id="middle"
      x="382.60513"
      y="19.685181"
      width="304.82568"
      height="797.55762"
      fill="#303030"
      stroke-width="13.9189"
    />
    <rect
      id="top"
      x="659.5929"
      y="19.685181"
      width="27.837961"
      height="797.55762"
      fill="#3d3d3d"
      stroke-width="13.9189"
    />
    <rect
      id="bottom"
      x="382.60513"
      y="19.685181"
      width="27.837961"
      height="797.55762"
      stroke-width="13.9189"
    />
    <polygon
      id="left"
      points="48.48,0.9 46.48,1.4 28.58,1.4 26.58,0.9 "
      transform="matrix(13.918981,0,0,13.918981,12.638619,7.1580555)"
      fill="#1f1f1f"
    />
    <polygon
      id="left-upper-rect"
      points="39.88,1.3 37.48,1.3 37.48,4.5 41.58,4.5 41.58,1.4 "
      transform="matrix(13.918981,0,0,13.918981,12.638619,7.1580555)"
      fill="#1c1c1c"
    />
    <polygon
      id="left-lower-rect"
      points="37.48,4.5 37.48,1.3 35.18,1.3 33.38,1.4 33.38,4.5 "
      transform="matrix(13.918981,0,0,13.918981,12.638619,7.1580555)"
      fill="#383838"
    />
    <path
      id="slot"
      d="m 567.72759,25.252731 h -65.41921 a 31.178518,31.178518 0 0 0 33.40555,26.446064 32.987985,32.987985 0 0 0 32.01366,-26.446064 z"
      fill="#262626"
      stroke-width="13.9189"
    />
    <path
      id="cover"
      d="m 659.59286,26.64463 h -68.20301 a 59.851618,59.851618 0 0 1 -114.13565,0 v 0 50.108331 h 182.33866 z"
      fill="#303030"
      stroke-width="13.9189"
    />
    <ellipse
      id="circle2957"
      cx="456.37573"
      cy="83.712471"
      rx="23.66227"
      ry="20.878471"
      fill="#212121"
      stroke-width="13.9189"
    />
    <rect
      id="ULNconnector0pin"
      x="347.80768"
      y="54.482635"
      width="48.716434"
      height="30.621759"
      fill="#8c8c8c"
      stroke-width="13.9189"
    />
    <polygon
      id="polygon2962"
      points="25.98,5.5 26.78,7 27.68,7 27.68,3.4 25.98,3.4 "
      transform="matrix(13.918981,0,0,13.918981,12.638619,7.1580555)"
      fill="#8c8c8c"
    />
    <rect
      id="ULNconnector15pin"
      x="672.11993"
      y="54.482635"
      width="48.716434"
      height="30.621759"
      fill="#8c8c8c"
      stroke-width="13.9189"
    />
    <polygon
      id="polygon2966"
      points="48.98,5.5 48.98,3.4 47.38,3.4 47.38,7 48.28,7 "
      transform="matrix(13.918981,0,0,13.918981,12.638619,7.1580555)"
      fill="#8c8c8c"
    />
    <rect
      id="ULNconnector7pin"
      x="347.80768"
      y="753.21539"
      width="48.716434"
      height="30.621759"
      fill="#8c8c8c"
      stroke-width="13.9189"
    />
    <polygon
      id="polygon2970"
      points="25.98,53.6 25.98,55.7 27.68,55.7 27.68,52.1 26.78,52.1 "
      transform="matrix(13.918981,0,0,13.918981,12.638619,7.1580555)"
      fill="#8c8c8c"
    />
    <rect
      id="ULNconnector8pin"
      x="672.11993"
      y="753.21539"
      width="48.716434"
      height="30.621759"
      fill="#8c8c8c"
      stroke-width="13.9189"
    />
    <polygon
      id="polygon2974"
      points="48.98,53.6 48.28,52.1 47.38,52.1 47.38,55.7 48.98,55.7 "
      transform="matrix(13.918981,0,0,13.918981,12.638619,7.1580555)"
      fill="#8c8c8c"
    />
    <rect
      id="ULNconnector1pin"
      x="347.80768"
      y="154.69926"
      width="48.716434"
      height="30.621759"
      fill="#8c8c8c"
      stroke-width="13.9189"
    />
    <polygon
      id="polygon2978"
      points="27.68,9.1 26.78,9.1 25.98,10.6 25.98,12.7 26.78,14.1 27.68,14.1 "
      transform="matrix(13.918981,0,0,13.918981,12.638619,7.1580555)"
      fill="#8c8c8c"
    />
    <rect
      id="ULNconnector14pin"
      x="672.11993"
      y="154.69926"
      width="48.716434"
      height="30.621759"
      fill="#8c8c8c"
      stroke-width="13.9189"
    />
    <polygon
      id="polygon2982"
      points="47.38,14.1 48.28,14.1 48.98,12.7 48.98,10.6 48.28,9.1 47.38,9.1 "
      transform="matrix(13.918981,0,0,13.918981,12.638619,7.1580555)"
      fill="#8c8c8c"
    />
    <rect
      id="ULNconnector2pin"
      x="347.80768"
      y="253.524"
      width="48.716434"
      height="30.621759"
      fill="#8c8c8c"
      stroke-width="13.9189"
    />
    <polygon
      id="polygon2986"
      points="27.68,16.3 26.78,16.3 25.98,17.7 25.98,19.9 26.78,21.3 27.68,21.3 "
      transform="matrix(13.918981,0,0,13.918981,12.638619,7.1580555)"
      fill="#8c8c8c"
    />
    <rect
      id="ULNconnector13pin"
      x="672.11993"
      y="253.524"
      width="48.716434"
      height="30.621759"
      fill="#8c8c8c"
      stroke-width="13.9189"
    />
    <polygon
      id="polygon2990"
      points="47.38,21.3 48.28,21.3 48.98,19.9 48.98,17.7 48.28,16.3 47.38,16.3 "
      transform="matrix(13.918981,0,0,13.918981,12.638619,7.1580555)"
      fill="#8c8c8c"
    />
    <rect
      id="ULNconnector3pin"
      x="347.80768"
      y="353.74066"
      width="48.716434"
      height="30.621759"
      fill="#8c8c8c"
      stroke-width="13.9189"
    />
    <polygon
      id="polygon2994"
      points="27.68,23.5 26.78,23.5 25.98,24.9 25.98,27 26.78,28.5 27.68,28.5 "
      transform="matrix(13.918981,0,0,13.918981,12.638619,7.1580555)"
      fill="#8c8c8c"
    />
    <rect
      id="ULNconnector12pin"
      x="672.11993"
      y="353.74066"
      width="48.716434"
      height="30.621759"
      fill="#8c8c8c"
      stroke-width="13.9189"
    />
    <polygon
      id="polygon2998"
      points="47.38,28.5 48.28,28.5 48.98,27 48.98,24.9 48.28,23.5 47.38,23.5 "
      transform="matrix(13.918981,0,0,13.918981,12.638619,7.1580555)"
      fill="#8c8c8c"
    />
    <rect
      id="ULNconnector4pin"
      x="347.80768"
      y="453.95737"
      width="48.716434"
      height="30.621759"
      fill="#8c8c8c"
      stroke-width="13.9189"
    />
    <polygon
      id="polygon3002"
      points="27.68,30.6 26.78,30.6 25.98,32.1 25.98,34.2 26.78,35.6 27.68,35.6 "
      transform="matrix(13.918981,0,0,13.918981,12.638619,7.1580555)"
      fill="#8c8c8c"
    />
    <rect
      id="ULNconnector11pin"
      x="672.11993"
      y="453.95737"
      width="48.716434"
      height="30.621759"
      fill="#8c8c8c"
      stroke-width="13.9189"
    />
    <polygon
      id="polygon3006"
      points="47.38,35.6 48.28,35.6 48.98,34.2 48.98,32.1 48.28,30.6 47.38,30.6 "
      transform="matrix(13.918981,0,0,13.918981,12.638619,7.1580555)"
      fill="#8c8c8c"
    />
    <rect
      id="ULNconnector5pin"
      x="347.80768"
      y="552.78217"
      width="48.716434"
      height="30.621759"
      fill="#8c8c8c"
      stroke-width="13.9189"
    />
    <polygon
      id="polygon3010"
      points="27.68,37.8 26.78,37.8 25.98,39.2 25.98,41.4 26.78,42.8 27.68,42.8 "
      transform="matrix(13.918981,0,0,13.918981,12.638619,7.1580555)"
      fill="#8c8c8c"
    />
    <rect
      id="ULNconnector10pin"
      x="672.11993"
      y="552.78217"
      width="48.716434"
      height="30.621759"
      fill="#8c8c8c"
      stroke-width="13.9189"
    />
    <polygon
      id="polygon3014"
      points="47.38,42.8 48.28,42.8 48.98,41.4 48.98,39.2 48.28,37.8 47.38,37.8 "
      transform="matrix(13.918981,0,0,13.918981,12.638619,7.1580555)"
      fill="#8c8c8c"
    />
    <rect
      id="ULNconnector6pin"
      x="347.80768"
      y="652.99878"
      width="48.716434"
      height="30.621759"
      fill="#8c8c8c"
      stroke-width="13.9189"
    />
    <polygon
      id="polygon3018"
      points="27.68,45 26.78,45 25.98,46.4 25.98,48.6 26.78,50 27.68,50 "
      transform="matrix(13.918981,0,0,13.918981,12.638619,7.1580555)"
      fill="#8c8c8c"
    />
    <rect
      id="ULNconnector9pin"
      x="672.11993"
      y="652.99878"
      width="48.716434"
      height="30.621759"
      fill="#8c8c8c"
      stroke-width="13.9189"
    />
    <polygon
      id="polygon3022"
      points="47.38,50 48.28,50 48.98,48.6 48.98,46.4 48.28,45 47.38,45 "
      transform="matrix(13.918981,0,0,13.918981,12.638619,7.1580555)"
      fill="#8c8c8c"
    />
    <path
      d="m 520.82062,205.92111 a 10.300046,10.300046 0 0 1 3.61893,-8.62977 10.578425,10.578425 0 0 1 8.2122,-2.64461 h 38.97315 a 3.4797453,3.4797453 0 0 1 0,6.95949 h -38.97315 c -3.89731,0 -4.87164,1.11352 -4.87164,4.31489 v 11.83113 c 0,3.20136 0.97433,4.31489 4.87164,4.31489 h 38.97315 a 3.4797453,3.4797453 0 0 1 0,6.95949 h -38.97315 a 10.578425,10.578425 0 0 1 -8.2122,-2.64461 10.300046,10.300046 0 0 1 -3.61893,-8.62977 z"
      id="path1001"
      fill="#ffffff"
      isolation="isolate"
      stroke-width="13.9189"
    />
    <path
      d="m 527.64092,275.6552 a 3.4797453,3.4797453 0 0 1 -6.95949,0 v -30.90014 h 50.80428 a 3.4797453,3.4797453 0 0 1 0,6.95949 h -43.84479 z"
      id="path1003"
      fill="#ffffff"
      isolation="isolate"
      stroke-width="13.9189"
    />
    <path
      d="m 571.6249,322.28379 a 3.4797453,3.4797453 0 0 1 0,6.95949 h -50.80428 v -9.18653 l 41.75694,-18.09467 h -38.2772 a 3.4797453,3.4797453 0 0 1 0,-6.95949 h 50.80429 v 9.18652 l -41.75694,18.23387 h 38.83395 z"
      id="path1005"
      fill="#ffffff"
      isolation="isolate"
      stroke-width="13.9189"
    />
    <path
      d="m 527.64092,351.93122 v 23.94065 a 3.4797453,3.4797453 0 1 1 -6.95949,0 v -30.90014 h 22.82713 a 6.9594905,6.9594905 0 0 1 7.79463,7.93381 v 19.48658 h 16.70278 v -23.94065 a 3.4797453,3.4797453 0 1 1 6.95949,0 v 23.10551 a 7.7946295,7.7946295 0 0 1 -1.94866,5.70678 7.37706,7.37706 0 0 1 -6.26355,2.08785 h -13.91898 a 7.37706,7.37706 0 0 1 -6.26354,-2.08785 7.7946295,7.7946295 0 0 1 -1.94865,-5.70678 v -19.62576 z"
      id="path1007"
      fill="#ffffff"
      isolation="isolate"
      stroke-width="13.9189"
    />
    <path
      d="m 575.10465,422.50045 a 6.9594905,6.9594905 0 0 1 -6.95949,6.95949 h -40.50424 a 6.8203007,6.8203007 0 0 1 -6.95949,-6.95949 v -20.46091 a 6.8203007,6.8203007 0 0 1 6.95949,-6.95949 h 40.36505 a 7.0986803,7.0986803 0 0 1 6.95949,6.95949 z m -47.32454,0 h 40.36505 v -20.46091 h -40.50424 z"
      id="path1009"
      fill="#ffffff"
      isolation="isolate"
      stroke-width="13.9189"
    />
    <path
      d="m 575.10465,472.60879 a 6.9594905,6.9594905 0 0 1 -6.95949,6.95949 h -40.50424 a 6.8203007,6.8203007 0 0 1 -6.95949,-6.95949 v -20.04334 a 6.8203007,6.8203007 0 0 1 6.95949,-6.95949 h 40.36505 a 6.9594905,6.9594905 0 0 1 6.95949,6.95949 z m -47.32454,0 h 40.36505 v -20.04334 h -40.50424 z"
      id="path1011"
      fill="#ffffff"
      isolation="isolate"
      stroke-width="13.9189"
    />
    <path
      d="m 568.14516,498.77646 a 3.4797453,3.4797453 0 1 1 6.95949,0 v 23.3839 a 6.8203007,6.8203007 0 0 1 -6.95949,6.95949 h -12.66628 a 8.3513887,8.3513887 0 0 1 -6.8203,-2.64461 8.2121989,8.2121989 0 0 1 -6.8203,2.64461 h -14.19736 a 6.8203007,6.8203007 0 0 1 -6.95949,-6.95949 v -23.3839 a 3.4797453,3.4797453 0 0 1 6.95949,0 v 23.3839 h 11.55275 c 4.0365,0 5.15003,-1.53109 5.15003,-3.47975 v -13.91898 a 3.4797453,3.4797453 0 0 1 6.95949,0 v 13.91898 c 0,1.94866 1.2527,3.47975 5.15002,3.47975 h 11.55276 z"
      id="path1013"
      fill="#ffffff"
      isolation="isolate"
      stroke-width="13.9189"
    />
    <path
      d="m 571.48571,559.04566 c 1.94866,0 3.61894,1.39189 3.61894,3.61893 0,2.22703 -1.80947,3.06218 -3.61894,3.61894 l -47.18535,13.91898 c -1.67027,0 -3.47974,-1.39191 -3.47974,-3.34056 0,-1.94866 1.80947,-3.20136 3.47974,-3.75812 l 8.35139,-2.50542 v -15.45006 l -8.35139,-2.64461 a 4.0365045,4.0365045 0 0 1 -3.47974,-3.75813 c 0,-1.94866 1.80947,-3.75812 3.47974,-3.34055 z m -12.94465,3.61893 v 0 l -18.79063,-5.4284 v 10.99599 z"
      id="path1015"
      fill="#ffffff"
      isolation="isolate"
      stroke-width="13.9189"
    />
    <path
      d="m 524.30036,602.47287 a 3.4797453,3.4797453 0 0 1 0,-6.95949 h 50.80429 v 23.10552 a 10.578425,10.578425 0 0 1 -11.97033,11.27437 h -9.46491 a 11.552754,11.552754 0 0 1 -8.90814,-2.7838 10.439236,10.439236 0 0 1 -3.34056,-9.32571 v -15.31089 z m 24.07984,0 v 15.45008 c 0,4.17569 0.97433,5.01083 5.01083,5.01083 h 9.74329 c 3.89731,0 5.01084,-0.83514 5.01084,-5.01083 v -15.45008 z"
      id="path1017"
      fill="#ffffff"
      isolation="isolate"
      stroke-width="13.9189"
    />
    <path
      d="m 538.63691,666.361 a 3.2013656,3.2013656 0 0 1 3.47975,-3.47974 3.3405554,3.3405554 0 0 1 3.47974,3.47974 v 13.91898 h -13.91898 a 10.300046,10.300046 0 0 1 -10.99599,-11.13519 v -11.97032 a 10.300046,10.300046 0 0 1 2.7838,-7.93381 10.300046,10.300046 0 0 1 8.62976,-3.34056 h 17.39873 a 13.918981,13.918981 0 0 1 10.16085,3.61894 l 10.57843,8.21219 a 10.856805,10.856805 0 0 1 4.73246,9.74329 v 9.32572 a 3.4797453,3.4797453 0 0 1 -6.95949,0 v -8.35139 c 0,-3.75813 0,-3.47975 -2.92299,-5.84597 l -9.6041,-7.79464 a 13.083843,13.083843 0 0 0 -9.04734,-2.22703 h -13.91898 c -3.89731,0 -5.15002,0.83514 -5.15002,4.87164 v 10.996 c 0,2.50541 0,4.59327 3.61894,4.59327 h 7.23787 z"
      id="path1019"
      fill="#ffffff"
      isolation="isolate"
      stroke-width="13.9189"
    />
    <ellipse
      cx="542.56189"
      cy="901.95007"
      rx="109.95995"
      ry="62.635414"
      id="ellipse1026"
      fill="#f9bd47"
      stroke-width="13.919"
    />
    <path
      d="m 497.29568,904.97339 a 54.701596,54.701596 0 0 1 15.31089,-38.97314 37.581249,37.581249 0 0 0 -2.78381,73.7706 62.217846,62.217846 0 0 1 -12.52708,-34.79746 z"
      id="path1028"
      fill="#f9a923"
      stroke-width="13.919"
    />
    <path
      d="m 646.22879,900.79771 a 54.701596,54.701596 0 0 1 -15.31088,38.97314 37.581249,37.581249 0 0 0 2.78379,-73.7706 48.577244,48.577244 0 0 1 12.52709,34.79746 z"
      id="path1030"
      fill="#f9a923"
      stroke-width="13.919"
    />
    <path
      d="m 1184.0913,316.0193 a 65.617079,65.617079 0 1 1 65.6171,-65.61708 65.617079,65.617079 0 0 1 -65.6171,65.61708 z"
      id="path842"
      fill="#e9e6e0"
      stroke-width="13.1234"
    />
    <path
      d="m 1184.0913,319.30015 a 68.897933,68.897933 0 1 1 68.8979,-68.89793 69.029167,69.029167 0 0 1 -68.8979,68.89793 z m 0,-131.23416 a 62.336225,62.336225 0 0 0 0,124.67245 62.336225,62.336225 0 0 0 61.9425,-62.33622 61.680055,61.680055 0 0 0 -61.9425,-62.33623 z"
      id="path844"
      fill="#c4c5c4"
      stroke-width="13.1234"
    />
    <path
      d="m 1185.6661,235.04781 a 6.2992395,6.2992395 0 0 1 -5.5118,-3.28085 c -7.0867,-12.33601 -14.4359,-13.77959 -14.8296,-13.77959 a 6.6929421,6.6929421 0 0 1 -5.3805,-7.48034 6.2992395,6.2992395 0 0 1 6.9553,-5.90553 36.089393,36.089393 0 0 1 24.2784,20.34128 6.9554103,6.9554103 0 0 1 -2.231,9.1864 6.1680055,6.1680055 0 0 1 -3.2808,0.91863 z"
      id="path1234"
      display="inline"
      fill="#ffffff"
      stroke-width="13.1234"
    />
    <path
      d="m 1184.0913,473.50025 a 65.617079,65.617079 0 1 1 65.6171,-65.61708 65.617079,65.617079 0 0 1 -65.6171,65.61708 z"
      id="path2554"
      fill="#e9e6e0"
      stroke-width="13.1234"
    />
    <path
      d="m 1184.0913,476.7811 a 68.897933,68.897933 0 1 1 68.8979,-68.89793 69.029167,69.029167 0 0 1 -68.8979,68.89793 z m 0,-131.23416 a 62.336225,62.336225 0 0 0 0,124.67245 62.336225,62.336225 0 0 0 61.9425,-62.33622 61.680055,61.680055 0 0 0 -61.9425,-62.33623 z"
      id="path2556"
      fill="#c4c5c4"
      stroke-width="13.1234"
    />
    <path
      d="m 1185.6661,392.52877 a 6.2992395,6.2992395 0 0 1 -5.5118,-3.28085 c -7.0867,-12.33602 -14.4359,-13.77959 -14.8296,-13.77959 a 6.6929421,6.6929421 0 0 1 -5.3805,-7.48034 6.2992395,6.2992395 0 0 1 6.9553,-5.90554 36.089393,36.089393 0 0 1 24.2784,20.34129 6.9554103,6.9554103 0 0 1 -2.231,9.18639 6.1680055,6.1680055 0 0 1 -3.2808,0.91864 z"
      id="path2558"
      display="inline"
      fill="#ffffff"
      stroke-width="13.1234"
    />
    <path
      d="m 1184.0913,630.9813 a 65.617079,65.617079 0 1 1 65.6171,-65.61708 65.617079,65.617079 0 0 1 -65.6171,65.61708 z"
      id="path2562"
      fill="#e9e6e0"
      stroke-width="13.1234"
    />
    <path
      d="m 1184.0913,634.26215 a 68.897933,68.897933 0 1 1 68.8979,-68.89793 69.029167,69.029167 0 0 1 -68.8979,68.89793 z m 0,-131.23416 a 62.336225,62.336225 0 0 0 0,124.67245 62.336225,62.336225 0 0 0 61.9425,-62.33622 61.680055,61.680055 0 0 0 -61.9425,-62.33623 z"
      id="path2564"
      fill="#c4c5c4"
      stroke-width="13.1234"
    />
    <path
      d="m 1185.6661,550.00982 a 6.2992395,6.2992395 0 0 1 -5.5118,-3.28085 c -7.0867,-12.33601 -14.4359,-13.77959 -14.8296,-13.77959 a 6.6929421,6.6929421 0 0 1 -5.3805,-7.48034 6.2992395,6.2992395 0 0 1 6.9553,-5.90554 36.089393,36.089393 0 0 1 24.2784,20.34129 6.9554103,6.9554103 0 0 1 -2.231,9.1864 6.1680055,6.1680055 0 0 1 -3.2808,0.91863 z"
      id="path2566"
      display="inline"
      fill="#ffffff"
      stroke-width="13.1234"
    />
    <path
      d="m 1184.0913,788.46226 a 65.617079,65.617079 0 1 1 65.6171,-65.61708 65.617079,65.617079 0 0 1 -65.6171,65.61708 z"
      id="path2570"
      fill="#e9e6e0"
      stroke-width="13.1234"
    />
    <path
      d="m 1184.0913,791.74311 a 68.897933,68.897933 0 1 1 68.8979,-68.89793 69.029167,69.029167 0 0 1 -68.8979,68.89793 z m 0,-131.23416 a 62.336225,62.336225 0 0 0 0,124.67245 62.336225,62.336225 0 0 0 61.9425,-62.33622 61.680055,61.680055 0 0 0 -61.9425,-62.33623 z"
      id="path2572"
      fill="#c4c5c4"
      stroke-width="13.1234"
    />
    <path
      d="m 1185.6661,707.49077 a 6.2992395,6.2992395 0 0 1 -5.5118,-3.28085 c -7.0867,-12.33601 -14.4359,-13.77959 -14.8296,-13.77959 a 6.6929421,6.6929421 0 0 1 -5.3805,-7.48034 6.2992395,6.2992395 0 0 1 6.9553,-5.90553 36.089393,36.089393 0 0 1 24.2784,20.34128 6.9554103,6.9554103 0 0 1 -2.231,9.1864 6.1680055,6.1680055 0 0 1 -3.2808,0.91863 z"
      id="path2574"
      display="inline"
      fill="#ffffff"
      stroke-width="13.1234"
    />
    <circle
      cx="232.32466"
      cy="850.29065"
      r="23.622116"
      id="circle920"
      display="inline"
      fill="#a0a0a0"
      fill-opacity="1"
      stroke-width="19.6852"
    />
    <circle
      cx="232.32466"
      cy="750.29028"
      r="23.622116"
      id="circle918"
      display="inline"
      fill="#a0a0a0"
      fill-opacity="1"
      stroke-width="19.6852"
    />
    <circle
      cx="232.32466"
      cy="650.28998"
      r="23.622116"
      id="circle916"
      display="inline"
      fill="#a0a0a0"
      fill-opacity="1"
      stroke-width="19.6852"
    />
    <rect
      id="rect10286"
      width="590.55292"
      height="232.28413"
      x="53.000015"
      y="-1018.2844"
      display="inline"
      fill="#e8e8e8"
      fill-opacity="1"
      stroke="none"
      stroke-width="3.95981"
      stroke-linecap="round"
      stroke-miterlimit="4"
      stroke-dasharray="none"
      transform="rotate(90)"
    />
    <path
      id="rect11018"
      d="M 1018.2842,53.000021 H 982.84302 V 131.7356 h 35.44118 z m 0,137.797439 h -35.44118 v 318.88929 h 35.44118 z m 0,374.02453 h -35.44118 v 78.73558 h 35.44118 z M 939.54863,53.000021 H 821.42491 786.00408 V 643.55757 h 35.42083 118.12372 v -35.4412 H 821.42491 V 88.441205 h 118.12372 z"
      display="inline"
      fill="#ffffff"
      fill-opacity="1"
      stroke="none"
      stroke-width="3.92127"
      stroke-linecap="round"
      stroke-miterlimit="4"
      stroke-dasharray="none"
      stroke-opacity="1"
    />
    <path
      class="bg-shadow"
      d="m 851.75256,932.4244 v 9.43568 h 9.84254 v -9.43568 h -9.84254"
      id="path17001"
      display="inline"
      fill="#ceb28c"
      fill-opacity="1"
      stroke="none"
      stroke-width="0.178081"
    />
    <path
      class="bg-shadow"
      d="m 875.51876,999.82294 c 7e-5,7.07566 0.93761,14.15116 2.81264,18.21636 4.54595,9.8554 3.93813,11.9271 3.93823,18.4156 -7e-5,12.4084 -11.60933,22.5605 -25.63292,22.5605 0,0 -6e-5,0 -6e-5,0 -14.0236,0 -25.49712,-10.152 -25.49712,-22.5605 -6e-5,-8.8537 1.6396,-10.2924 4.81534,-21.1937 1.20022,-4.119 1.80019,-9.7787 1.80019,-15.4382 0,-5.65951 -0.6,-11.31901 -1.80019,-15.43824 -3.17566,-10.90126 -4.81542,-12.33993 -4.81534,-21.19369 6e-5,-12.40847 11.47352,-22.56057 25.49712,-22.56057 l 6e-5,6e-5 c 14.02359,0 25.63292,10.1521 25.63292,22.56058 0,6.4881 0.60781,8.56022 -3.93823,18.41555 -1.875,4.06479 -2.81255,11.14078 -2.81264,18.21637 h 7e-5"
      id="path17003"
      display="inline"
      fill="#ceb28c"
      fill-opacity="1"
      stroke="none"
      stroke-width="0.0857304"
    />
    <path
      class="bg-shadow"
      d="m 851.78485,1067.2731 v -9.4357 h 9.84254 v 9.4357 h -9.84254"
      id="path17005"
      display="inline"
      fill="#ceb28c"
      fill-opacity="1"
      stroke="none"
      stroke-width="0.178081"
    />
    <path
      class="bg"
      d="m 856.71764,940.63125 v 118.38335 c -13.98714,-0.042 -25.5518,-10.1763 -25.5518,-22.5605 8e-5,-6.4881 -0.60771,-8.5602 3.93823,-18.4156 1.87508,-4.0648 2.81255,-11.1408 2.81265,-18.21636 -8e-5,-7.07567 -0.93762,-14.15118 -2.81257,-18.21638 -4.54592,-9.85533 -3.93821,-11.92704 -3.93821,-18.41554 9e-5,-12.38429 11.56466,-22.52107 25.55179,-22.56058 v 0"
      id="path17007"
      display="inline"
      fill="#e6c8a2"
      fill-opacity="1"
      stroke="none"
      stroke-width="0.0857304"
    />
    <path
      id="path17017"
      d="m 861.5951,932.4244 h -9.84254 v -7.10043 c -11.98937,-1.56719 -20.63033,-11.91378 -20.67283,-25.47198 -0.002,-14.13601 11.45806,-25.596 25.59409,-25.59405 14.13604,-0.002 25.59606,11.45804 25.59411,25.59405 -0.0625,13.91549 -11.00262,24.58081 -20.67283,25.47198 z"
      display="inline"
      fill="#a0a0a0"
      stroke-width="3.96801"
      stroke-linecap="round"
    />
    <path
      id="path17019"
      d="m 861.62739,1067.2731 h -9.84254 v 7.1005 c -11.98937,1.5671 -20.63033,11.9137 -20.67283,25.472 -0.002,14.1359 11.45806,25.5958 25.5941,25.594 14.13603,0 25.59605,-11.4581 25.5941,-25.594 -0.0625,-13.9156 -11.00262,-24.5809 -20.67283,-25.472 z"
      display="inline"
      fill="#a0a0a0"
      stroke-width="3.96801"
      stroke-linecap="round"
    />
    <path
      d="m 831.4595,971.26628 c -0.28521,-4.3106 -0.24146,-6.44785 -0.11875,-10.24628 l 50.80511,0.0177 c 0.0833,2.50154 0.14469,7.72591 -0.1275,10.26479"
      id="path17015"
      display="inline"
      fill="#ffd100"
      fill-opacity="1"
      stroke="none"
      stroke-width="0.0728707"
    />
    <path
      d="m 876.61458,987.03105 c -0.52719,4.06228 -1.16383,6.45026 -1.12707,11.45734 l -37.69517,-0.0198 c 0.0417,-3.72337 -0.46094,-7.47063 -1.06257,-11.49667"
      id="path17013"
      display="inline"
      fill="#800000"
      fill-opacity="1"
      stroke="none"
      stroke-width="0.10202"
    />
    <path
      d="m 876.10768,1009.5932 c 0.82115,5.6427 1.61939,7.1344 3.51822,11.4971 l -45.89724,0.019 c 1.44019,-3.3355 2.81035,-6.3516 3.47965,-11.5048"
      id="path17011"
      display="inline"
      fill="#800000"
      fill-opacity="1"
      stroke="none"
      stroke-width="0.102024"
    />
    <path
      d="m 882.27566,1032.2141 c -0.0406,6.0535 -0.0354,8.0979 -1.44909,11.516 h -48.27556 c -1.2458,-2.8456 -1.57804,-6.401 -1.38401,-11.5064"
      id="path17009"
      display="inline"
      fill="#007500"
      fill-opacity="1"
      stroke="none"
      stroke-width="0.102021"
    />
    <path
      class="bg-shadow"
      d="m 951.75281,932.42439 v 9.43568 h 9.84254 v -9.43568 h -9.84254"
      id="path4841"
      display="inline"
      fill="#ceb28c"
      fill-opacity="1"
      stroke="none"
      stroke-width="0.178081"
    />
    <path
      class="bg-shadow"
      d="m 975.519,999.82293 c 8e-5,7.07567 0.93762,14.15117 2.81265,18.21637 4.54594,9.8554 3.93812,11.9271 3.93822,18.4156 -7e-5,12.4084 -11.60932,22.5605 -25.63291,22.5605 0,0 -6e-5,0 -6e-5,0 -14.0236,0 -25.49711,-10.152 -25.49711,-22.5605 -7e-5,-8.8537 1.63959,-10.2924 4.81534,-21.1937 1.20021,-4.119 1.80018,-9.7787 1.80018,-15.43821 0,-5.65951 -0.6,-11.31901 -1.80018,-15.43824 -3.17567,-10.90126 -4.81542,-12.33993 -4.81534,-21.19369 5e-5,-12.40847 11.47351,-22.56057 25.49711,-22.56057 l 6e-5,6e-5 c 14.02359,0 25.63291,10.1521 25.63291,22.56058 0,6.4881 0.60782,8.56022 -3.93822,18.41555 -1.875,4.06479 -2.81256,11.14078 -2.81265,18.21637 h 8e-5"
      id="path4843"
      display="inline"
      fill="#ceb28c"
      fill-opacity="1"
      stroke="none"
      stroke-width="0.0857304"
    />
    <path
      class="bg-shadow"
      d="m 951.78511,1067.2731 v -9.4357 h 9.84253 v 9.4357 h -9.84253"
      id="path4845"
      display="inline"
      fill="#ceb28c"
      fill-opacity="1"
      stroke="none"
      stroke-width="0.178081"
    />
    <path
      class="bg"
      d="m 956.7179,940.63124 v 118.38336 c -13.98714,-0.042 -25.5518,-10.1763 -25.5518,-22.5605 8e-5,-6.4881 -0.60772,-8.5602 3.93823,-18.4156 1.87508,-4.0648 2.81254,-11.1408 2.81264,-18.21637 -8e-5,-7.07567 -0.93761,-14.15118 -2.81256,-18.21638 -4.54593,-9.85533 -3.93821,-11.92704 -3.93821,-18.41554 8e-5,-12.38429 11.56466,-22.52107 25.55178,-22.56058 v 0"
      id="path4847"
      display="inline"
      fill="#e6c8a2"
      fill-opacity="1"
      stroke="none"
      stroke-width="0.0857304"
    />
    <path
      id="path4849"
      d="m 961.59535,932.42439 h -9.84254 v -7.10043 c -11.98936,-1.56719 -20.63033,-11.91378 -20.67282,-25.47198 -0.002,-14.13601 11.45806,-25.596 25.59408,-25.59405 14.13605,-0.002 25.59606,11.45804 25.5941,25.59405 -0.0625,13.91549 -11.0026,24.58081 -20.67282,25.47198 z"
      display="inline"
      fill="#a0a0a0"
      stroke-width="3.96801"
      stroke-linecap="round"
    />
    <path
      id="path4851"
      d="m 961.62763,1067.2731 h -9.84253 v 7.1005 c -11.98937,1.5671 -20.63033,11.9137 -20.67283,25.472 -0.002,14.1359 11.45806,25.5958 25.5941,25.594 14.13603,0 25.59604,-11.4581 25.59409,-25.594 -0.0625,-13.9156 -11.00261,-24.5809 -20.67283,-25.472 z"
      display="inline"
      fill="#a0a0a0"
      stroke-width="3.96801"
      stroke-linecap="round"
    />
    <path
      d="m 931.45976,971.26627 c -0.28521,-4.3106 -0.24146,-6.44785 -0.11875,-10.24628 l 50.80511,0.0177 c 0.0833,2.50154 0.14468,7.72591 -0.1275,10.26479"
      id="path4853"
      display="inline"
      fill="#ffd100"
      fill-opacity="1"
      stroke="none"
      stroke-width="0.0728707"
    />
    <path
      d="m 976.61484,987.03104 c -0.52719,4.06228 -1.16384,6.45026 -1.12708,11.45734 l -37.69516,-0.0198 c 0.0417,-3.72337 -0.46095,-7.47063 -1.06257,-11.49667"
      id="path4855"
      display="inline"
      fill="#800000"
      fill-opacity="1"
      stroke="none"
      stroke-width="0.10202"
    />
    <path
      d="m 976.10794,1009.5932 c 0.82115,5.6427 1.61939,7.1344 3.51822,11.4971 l -45.89725,0.019 c 1.4402,-3.3355 2.81036,-6.3516 3.47965,-11.5048"
      id="path4857"
      display="inline"
      fill="#800000"
      fill-opacity="1"
      stroke="none"
      stroke-width="0.102024"
    />
    <path
      d="m 982.27591,1032.2141 c -0.0406,6.0535 -0.0354,8.0979 -1.44908,11.516 h -48.27556 c -1.2458,-2.8456 -1.57804,-6.401 -1.38401,-11.5064"
      id="path4859"
      display="inline"
      fill="#007500"
      fill-opacity="1"
      stroke="none"
      stroke-width="0.102021"
    />
    <path
      class="bg-shadow"
      d="m 1051.7531,932.4244 v 9.43568 h 9.8426 v -9.43568 h -9.8426"
      id="path4863"
      display="inline"
      fill="#ceb28c"
      fill-opacity="1"
      stroke="none"
      stroke-width="0.178081"
    />
    <path
      class="bg-shadow"
      d="m 1075.5193,999.82294 c 10e-5,7.07566 0.9376,14.15116 2.8126,18.21636 4.546,9.8554 3.9382,11.9271 3.9383,18.4156 0,12.4084 -11.6093,22.5605 -25.6329,22.5605 0,0 0,0 0,0 -14.0237,0 -25.4972,-10.152 -25.4972,-22.5605 0,-8.8537 1.6396,-10.2924 4.8153,-21.1937 1.2002,-4.119 1.8002,-9.7787 1.8002,-15.4382 0,-5.65951 -0.6,-11.31901 -1.8002,-15.43824 -3.1756,-10.90126 -4.8154,-12.33993 -4.8153,-21.19369 0,-12.40847 11.4735,-22.56057 25.4972,-22.56057 v 6e-5 c 14.0236,0 25.6329,10.1521 25.6329,22.56058 0,6.4881 0.6078,8.56022 -3.9383,18.41555 -1.875,4.06479 -2.8125,11.14078 -2.8126,18.21637 h 10e-5"
      id="path4865"
      display="inline"
      fill="#ceb28c"
      fill-opacity="1"
      stroke="none"
      stroke-width="0.0857304"
    />
    <path
      class="bg-shadow"
      d="m 1051.7854,1067.2731 v -9.4357 h 9.8426 v 9.4357 h -9.8426"
      id="path4867"
      display="inline"
      fill="#ceb28c"
      fill-opacity="1"
      stroke="none"
      stroke-width="0.178081"
    />
    <path
      class="bg"
      d="m 1056.7183,940.63125 v 118.38335 c -13.9873,-0.042 -25.5519,-10.1763 -25.5519,-22.5605 0,-6.4881 -0.6077,-8.5602 3.9382,-18.4156 1.8751,-4.0648 2.8126,-11.1408 2.8127,-18.21636 0,-7.07567 -0.9376,-14.15118 -2.8126,-18.21638 -4.5459,-9.85533 -3.9382,-11.92704 -3.9382,-18.41554 0,-12.38429 11.5646,-22.52107 25.5518,-22.56058 v 0"
      id="path4869"
      display="inline"
      fill="#e6c8a2"
      fill-opacity="1"
      stroke="none"
      stroke-width="0.0857304"
    />
    <path
      id="path4871"
      d="m 1061.5957,932.4244 h -9.8426 v -7.10043 c -11.9893,-1.56719 -20.6303,-11.91378 -20.6728,-25.47198 0,-14.13601 11.458,-25.596 25.5941,-25.59405 14.136,-0.002 25.596,11.45804 25.5941,25.59405 -0.062,13.91549 -11.0026,24.58081 -20.6728,25.47198 z"
      display="inline"
      fill="#a0a0a0"
      stroke-width="3.96801"
      stroke-linecap="round"
    />
    <path
      id="path4873"
      d="m 1061.628,1067.2731 h -9.8426 v 7.1005 c -11.9894,1.5671 -20.6303,11.9137 -20.6728,25.472 0,14.1359 11.458,25.5958 25.5941,25.594 14.136,0 25.596,-11.4581 25.594,-25.594 -0.062,-13.9156 -11.0025,-24.5809 -20.6727,-25.472 z"
      display="inline"
      fill="#a0a0a0"
      stroke-width="3.96801"
      stroke-linecap="round"
    />
    <path
      d="m 1031.4601,971.26628 c -0.2852,-4.3106 -0.2415,-6.44785 -0.1188,-10.24628 l 50.8051,0.0177 c 0.083,2.50154 0.1447,7.72591 -0.1275,10.26479"
      id="path4875"
      display="inline"
      fill="#ffd100"
      fill-opacity="1"
      stroke="none"
      stroke-width="0.0728707"
    />
    <path
      d="m 1076.6151,987.03105 c -0.5272,4.06228 -1.1638,6.45026 -1.127,11.45734 l -37.6952,-0.0198 c 0.042,-3.72337 -0.4609,-7.47063 -1.0626,-11.49667"
      id="path4877"
      display="inline"
      fill="#800000"
      fill-opacity="1"
      stroke="none"
      stroke-width="0.10202"
    />
    <path
      d="m 1076.1082,1009.5932 c 0.8212,5.6427 1.6194,7.1344 3.5182,11.4971 l -45.8972,0.019 c 1.4402,-3.3355 2.8104,-6.3516 3.4797,-11.5048"
      id="path4879"
      display="inline"
      fill="#800000"
      fill-opacity="1"
      stroke="none"
      stroke-width="0.102024"
    />
    <path
      d="m 1082.2762,1032.2141 c -0.041,6.0535 -0.035,8.0979 -1.4491,11.516 h -48.2755 c -1.2458,-2.8456 -1.578,-6.401 -1.384,-11.5064"
      id="path4881"
      display="inline"
      fill="#007500"
      fill-opacity="1"
      stroke="none"
      stroke-width="0.102021"
    />
    <path
      class="bg-shadow"
      d="m 1151.7533,932.42439 v 9.43568 h 9.8427 v -9.43568 h -9.8427"
      id="path4885"
      display="inline"
      fill="#ceb28c"
      fill-opacity="1"
      stroke="none"
      stroke-width="0.178081"
    />
    <path
      class="bg-shadow"
      d="m 1175.5196,999.82293 c 0,7.07567 0.9376,14.15117 2.8126,18.21637 4.5459,9.8554 3.9381,11.9271 3.9382,18.4156 0,12.4084 -11.6093,22.5605 -25.6329,22.5605 0,0 -10e-5,0 -10e-5,0 -14.0235,0 -25.497,-10.152 -25.497,-22.5605 0,-8.8537 1.6396,-10.2924 4.8153,-21.1937 1.2002,-4.119 1.8002,-9.7787 1.8002,-15.43821 0,-5.65951 -0.6,-11.31901 -1.8002,-15.43824 -3.1756,-10.90126 -4.8154,-12.33993 -4.8153,-21.19369 0,-12.40847 11.4735,-22.56057 25.497,-22.56057 l 10e-5,6e-5 c 14.0236,0 25.6329,10.1521 25.6329,22.56058 0,6.4881 0.6078,8.56022 -3.9382,18.41555 -1.875,4.06479 -2.8125,11.14078 -2.8126,18.21637 v 0"
      id="path4887"
      display="inline"
      fill="#ceb28c"
      fill-opacity="1"
      stroke="none"
      stroke-width="0.0857304"
    />
    <path
      class="bg-shadow"
      d="m 1151.7856,1067.2731 v -9.4357 h 9.8427 v 9.4357 h -9.8427"
      id="path4889"
      display="inline"
      fill="#ceb28c"
      fill-opacity="1"
      stroke="none"
      stroke-width="0.178081"
    />
    <path
      class="bg"
      d="m 1156.7184,940.63124 v 118.38336 c -13.9871,-0.042 -25.5517,-10.1763 -25.5517,-22.5605 0,-6.4881 -0.6077,-8.5602 3.9382,-18.4156 1.8751,-4.0648 2.8125,-11.1408 2.8126,-18.21637 0,-7.07567 -0.9376,-14.15118 -2.8125,-18.21638 -4.5459,-9.85533 -3.9382,-11.92704 -3.9382,-18.41554 0,-12.38429 11.5646,-22.52107 25.5517,-22.56058 v 0"
      id="path4891"
      display="inline"
      fill="#e6c8a2"
      fill-opacity="1"
      stroke="none"
      stroke-width="0.0857304"
    />
    <path
      id="path4893"
      d="m 1161.596,932.42439 h -9.8427 v -7.10043 c -11.9893,-1.56719 -20.6302,-11.91378 -20.6727,-25.47198 0,-14.13601 11.458,-25.596 25.594,-25.59405 14.1361,-0.002 25.5961,11.45804 25.5941,25.59405 -0.062,13.91549 -11.0026,24.58081 -20.6727,25.47198 z"
      display="inline"
      fill="#a0a0a0"
      stroke-width="3.96801"
      stroke-linecap="round"
    />
    <path
      id="path4895"
      d="m 1161.6282,1067.2731 h -9.8426 v 7.1005 c -11.9893,1.5671 -20.6302,11.9137 -20.6727,25.472 0,14.1359 11.458,25.5958 25.594,25.594 14.1361,0 25.5961,-11.4581 25.5941,-25.594 -0.062,-13.9156 -11.0026,-24.5809 -20.6728,-25.472 z"
      display="inline"
      fill="#a0a0a0"
      stroke-width="3.96801"
      stroke-linecap="round"
    />
    <path
      d="m 1131.4604,971.26627 c -0.2853,-4.3106 -0.2415,-6.44785 -0.1188,-10.24628 l 50.8051,0.0177 c 0.083,2.50154 0.1446,7.72591 -0.1275,10.26479"
      id="path4897"
      display="inline"
      fill="#ffd100"
      fill-opacity="1"
      stroke="none"
      stroke-width="0.0728707"
    />
    <path
      d="m 1176.6154,987.03104 c -0.5272,4.06228 -1.1638,6.45026 -1.1271,11.45734 l -37.6951,-0.0198 c 0.042,-3.72337 -0.461,-7.47063 -1.0626,-11.49667"
      id="path4899"
      display="inline"
      fill="#800000"
      fill-opacity="1"
      stroke="none"
      stroke-width="0.10202"
    />
    <path
      d="m 1176.1085,1009.5932 c 0.8212,5.6427 1.6194,7.1344 3.5182,11.4971 l -45.8972,0.019 c 1.4402,-3.3355 2.8104,-6.3516 3.4796,-11.5048"
      id="path4901"
      display="inline"
      fill="#800000"
      fill-opacity="1"
      stroke="none"
      stroke-width="0.102024"
    />
    <path
      d="m 1182.2765,1032.2141 c -0.041,6.0535 -0.035,8.0979 -1.4491,11.516 h -48.2755 c -1.2458,-2.8456 -1.5781,-6.401 -1.3841,-11.5064"
      id="path4903"
      display="inline"
      fill="#007500"
      fill-opacity="1"
      stroke="none"
      stroke-width="0.102021"
    />
    <rect
      height="31.921192"
      x="527.63013"
      y="-946.33856"
      width="31.921192"
      fill="#8d8c8c"
      id="rect1022"
      transform="rotate(90)"
      stroke-width="0.1"
    />
    <rect
      height="16.418947"
      x="535.38013"
      y="-938.58746"
      width="16.418947"
      fill="#8c8663"
      id="rect1024"
      transform="rotate(90)"
      stroke-width="0.1"
    />
    <polygon
      fill="#b8af82"
      points="12340.5,340.463 12418,417.974 12582,417.974 12659.7,340.463 "
      id="polygon1026"
      transform="matrix(0,0.10000029,-0.10000029,0,980.38491,-706.42347)"
    />
    <polygon
      fill="#80795b"
      points="12582,582.025 12582,417.974 12659.7,340.463 12659.7,659.674 "
      id="polygon1028"
      transform="matrix(0,0.10000029,-0.10000029,0,980.38491,-706.42347)"
    />
    <polygon
      fill="#5e5b43"
      points="12418,582.025 12582,582.025 12659.7,659.674 12340.5,659.674 "
      id="polygon1030"
      transform="matrix(0,0.10000029,-0.10000029,0,980.38491,-706.42347)"
    />
    <polygon
      fill="#9a916c"
      points="12340.5,340.463 12418,417.974 12418,582.025 12340.5,659.674 "
      id="polygon1032"
      transform="matrix(0,0.10000029,-0.10000029,0,980.38491,-706.42347)"
    />
    <rect
      height="31.921192"
      x="430.77939"
      y="-946.33856"
      width="31.921192"
      fill="#8d8c8c"
      id="rect1006"
      transform="rotate(90)"
      stroke-width="0.1"
    />
    <rect
      height="16.418947"
      x="438.52942"
      y="-938.58746"
      width="16.418947"
      fill="#8c8663"
      id="rect1008"
      transform="rotate(90)"
      stroke-width="0.1"
    />
    <polygon
      fill="#b8af82"
      points="11340.5,340.463 11418,417.974 11582,417.974 11659.7,340.463 "
      id="polygon1010"
      transform="matrix(0,0.10000029,-0.10000029,0,980.38491,-703.27386)"
    />
    <polygon
      fill="#80795b"
      points="11582,582.025 11582,417.974 11659.7,340.463 11659.7,659.674 "
      id="polygon1012"
      transform="matrix(0,0.10000029,-0.10000029,0,980.38491,-703.27386)"
    />
    <polygon
      fill="#5e5b43"
      points="11418,582.025 11582,582.025 11659.7,659.674 11340.5,659.674 "
      id="polygon1014"
      transform="matrix(0,0.10000029,-0.10000029,0,980.38491,-703.27386)"
    />
    <polygon
      fill="#9a916c"
      points="11340.5,340.463 11418,417.974 11418,582.025 11340.5,659.674 "
      id="polygon1016"
      transform="matrix(0,0.10000029,-0.10000029,0,980.38491,-703.27386)"
    />
    <rect
      height="31.921192"
      x="332.35394"
      y="-946.33856"
      width="31.921192"
      fill="#8d8c8c"
      id="rect990"
      transform="rotate(90)"
      stroke-width="0.1"
    />
    <rect
      height="16.418947"
      x="340.10394"
      y="-938.58746"
      width="16.418947"
      fill="#8c8663"
      id="rect992"
      transform="rotate(90)"
      stroke-width="0.1"
    />
    <polygon
      fill="#b8af82"
      points="10582,417.974 10659.7,340.463 10340.5,340.463 10418,417.974 "
      id="polygon994"
      transform="matrix(0,0.10000029,-0.10000029,0,980.38491,-701.69906)"
    />
    <polygon
      fill="#80795b"
      points="10659.7,340.463 10659.7,659.674 10582,582.025 10582,417.974 "
      id="polygon996"
      transform="matrix(0,0.10000029,-0.10000029,0,980.38491,-701.69906)"
    />
    <polygon
      fill="#5e5b43"
      points="10659.7,659.674 10340.5,659.674 10418,582.025 10582,582.025 "
      id="polygon998"
      transform="matrix(0,0.10000029,-0.10000029,0,980.38491,-701.69906)"
    />
    <polygon
      fill="#9a916c"
      points="10418,582.025 10340.5,659.674 10340.5,340.463 10418,417.974 "
      id="polygon1000"
      transform="matrix(0,0.10000029,-0.10000029,0,980.38491,-701.69906)"
    />
    <rect
      height="31.921192"
      x="235.30739"
      y="-946.33856"
      width="31.921192"
      fill="#8d8c8c"
      id="rect974"
      transform="rotate(90)"
      stroke-width="0.1"
    />
    <rect
      height="16.418947"
      x="243.05838"
      y="-938.58746"
      width="16.418947"
      fill="#8c8663"
      id="rect976"
      transform="rotate(90)"
      stroke-width="0.1"
    />
    <polygon
      fill="#b8af82"
      points="9582.02,417.974 9659.67,340.463 9340.46,340.463 9417.97,417.974 "
      id="polygon978"
      transform="matrix(0,0.10000029,-0.10000029,0,980.38491,-698.74131)"
    />
    <polygon
      fill="#80795b"
      points="9659.67,340.463 9659.67,659.674 9582.02,582.025 9582.02,417.974 "
      id="polygon980"
      transform="matrix(0,0.10000029,-0.10000029,0,980.38491,-698.74131)"
    />
    <polygon
      fill="#5e5b43"
      points="9659.67,659.674 9340.46,659.674 9417.97,582.025 9582.02,582.025 "
      id="polygon982"
      transform="matrix(0,0.10000029,-0.10000029,0,980.38491,-698.74131)"
    />
    <polygon
      fill="#9a916c"
      points="9417.97,582.025 9340.46,659.674 9340.46,340.463 9417.97,417.974 "
      id="polygon984"
      transform="matrix(0,0.10000029,-0.10000029,0,980.38491,-698.74131)"
    />
    <rect
      height="31.921192"
      x="135.48167"
      y="-946.33856"
      width="31.921192"
      fill="#8d8c8c"
      id="rect958"
      transform="rotate(90)"
      stroke-width="0.1"
    />
    <rect
      height="16.418947"
      x="143.23267"
      y="-938.58746"
      width="16.418947"
      fill="#8c8663"
      id="rect960"
      transform="rotate(90)"
      stroke-width="0.1"
    />
    <polygon
      fill="#b8af82"
      points="8417.97,417.974 8582.02,417.974 8659.67,340.463 8340.46,340.463 "
      id="polygon962"
      transform="matrix(0,0.10000029,-0.10000029,0,980.38491,-698.56673)"
    />
    <polygon
      fill="#80795b"
      points="8582.02,417.974 8659.67,340.463 8659.67,659.674 8582.02,582.025 "
      id="polygon964"
      transform="matrix(0,0.10000029,-0.10000029,0,980.38491,-698.56673)"
    />
    <polygon
      fill="#5e5b43"
      points="8582.02,582.025 8659.67,659.674 8340.46,659.674 8417.97,582.025 "
      id="polygon966"
      transform="matrix(0,0.10000029,-0.10000029,0,980.38491,-698.56673)"
    />
    <polygon
      fill="#9a916c"
      points="8417.97,417.974 8417.97,582.025 8340.46,659.674 8340.46,340.463 "
      id="polygon968"
      transform="matrix(0,0.10000029,-0.10000029,0,980.38491,-698.56673)"
    />
    <polygon
      fill="#404040"
      points="5000,217.113 4782.75,0 4217.11,0 4000,217.113 4000,782.747 4217.11,1000 4782.75,1000 5000,782.747 "
      id="polygon890"
      transform="matrix(0.10000029,0,0,0.10000029,-20.063524,1001.7422)"
    />
    <rect
      height="31.921192"
      x="413.98373"
      y="1035.7886"
      width="31.921192"
      fill="#8d8c8c"
      id="rect894"
      stroke-width="0.1"
    />
    <rect
      height="16.418947"
      x="421.73477"
      y="1043.5397"
      width="16.418947"
      fill="#8c8663"
      id="rect896"
      stroke-width="0.1"
    />
    <polygon
      fill="#b8af82"
      points="4582.02,417.974 4659.67,340.463 4340.46,340.463 4417.97,417.974 "
      id="polygon898"
      transform="matrix(0.10000029,0,0,0.10000029,-20.063524,1001.7422)"
    />
    <polygon
      fill="#80795b"
      points="4659.67,340.463 4659.67,659.674 4582.02,582.025 4582.02,417.974 "
      id="polygon900"
      transform="matrix(0.10000029,0,0,0.10000029,-20.063524,1001.7422)"
    />
    <polygon
      fill="#5e5b43"
      points="4659.67,659.674 4340.46,659.674 4417.97,582.025 4582.02,582.025 "
      id="polygon902"
      transform="matrix(0.10000029,0,0,0.10000029,-20.063524,1001.7422)"
    />
    <polygon
      fill="#9a916c"
      points="4417.97,582.025 4340.46,659.674 4340.46,340.463 4417.97,417.974 "
      id="polygon904"
      transform="matrix(0.10000029,0,0,0.10000029,-20.063524,1001.7422)"
    />
    <polygon
      fill="#404040"
      points="6000,217.113 5782.75,0 5217.11,0 5000,217.113 5000,782.747 5217.11,1000 5782.75,1000 6000,782.747 "
      id="polygon906"
      transform="matrix(0.10000029,0,0,0.10000029,-20.063524,1001.7422)"
    />
    <rect
      height="31.921192"
      x="513.98401"
      y="1035.7886"
      width="31.921192"
      fill="#8d8c8c"
      id="rect910"
      stroke-width="0.1"
    />
    <rect
      height="16.418947"
      x="521.73505"
      y="1043.5397"
      width="16.418947"
      fill="#8c8663"
      id="rect912"
      stroke-width="0.1"
    />
    <polygon
      fill="#b8af82"
      points="5582.02,417.974 5659.67,340.463 5340.46,340.463 5417.97,417.974 "
      id="polygon914"
      transform="matrix(0.10000029,0,0,0.10000029,-20.063524,1001.7422)"
    />
    <polygon
      fill="#80795b"
      points="5659.67,340.463 5659.67,659.674 5582.02,582.025 5582.02,417.974 "
      id="polygon916"
      transform="matrix(0.10000029,0,0,0.10000029,-20.063524,1001.7422)"
    />
    <polygon
      fill="#5e5b43"
      points="5659.67,659.674 5340.46,659.674 5417.97,582.025 5582.02,582.025 "
      id="polygon918"
      transform="matrix(0.10000029,0,0,0.10000029,-20.063524,1001.7422)"
    />
    <polygon
      fill="#9a916c"
      points="5417.97,582.025 5340.46,659.674 5340.46,340.463 5417.97,417.974 "
      id="polygon920"
      transform="matrix(0.10000029,0,0,0.10000029,-20.063524,1001.7422)"
    />
    <polygon
      fill="#404040"
      points="7000,217.113 6782.75,0 6217.11,0 6000,217.113 6000,782.747 6217.11,1000 6782.75,1000 7000,782.747 "
      id="polygon922"
      transform="matrix(0.10000029,0,0,0.10000029,-20.063524,1001.7422)"
    />
    <rect
      height="31.921192"
      x="613.98431"
      y="1035.7886"
      width="31.921192"
      fill="#8d8c8c"
      id="rect926"
      stroke-width="0.1"
    />
    <rect
      height="16.418947"
      x="621.73535"
      y="1043.5397"
      width="16.418947"
      fill="#8c8663"
      id="rect928"
      stroke-width="0.1"
    />
    <polygon
      fill="#b8af82"
      points="6582.02,417.974 6659.67,340.463 6340.46,340.463 6417.97,417.974 "
      id="polygon930"
      transform="matrix(0.10000029,0,0,0.10000029,-20.063524,1001.7422)"
    />
    <polygon
      fill="#80795b"
      points="6659.67,340.463 6659.67,659.674 6582.02,582.025 6582.02,417.974 "
      id="polygon932"
      transform="matrix(0.10000029,0,0,0.10000029,-20.063524,1001.7422)"
    />
    <polygon
      fill="#5e5b43"
      points="6659.67,659.674 6340.46,659.674 6417.97,582.025 6582.02,582.025 "
      id="polygon934"
      transform="matrix(0.10000029,0,0,0.10000029,-20.063524,1001.7422)"
    />
    <polygon
      fill="#9a916c"
      points="6417.97,582.025 6340.46,659.674 6340.46,340.463 6417.97,417.974 "
      id="polygon936"
      transform="matrix(0.10000029,0,0,0.10000029,-20.063524,1001.7422)"
    />
    <polygon
      fill="#404040"
      points="8000,217.113 7782.75,0 7217.11,0 7000,217.113 7000,782.747 7217.11,1000 7782.75,1000 8000,782.747 "
      id="polygon938"
      transform="matrix(0.10000029,0,0,0.10000029,-20.063524,1001.7422)"
    />
    <rect
      height="31.921192"
      x="713.98462"
      y="1035.7886"
      width="31.921192"
      fill="#8d8c8c"
      id="rect942"
      stroke-width="0.1"
    />
    <rect
      height="16.418947"
      x="721.73566"
      y="1043.5397"
      width="16.418947"
      fill="#8c8663"
      id="rect944"
      stroke-width="0.1"
    />
    <polygon
      fill="#b8af82"
      points="7582.02,417.974 7659.67,340.463 7340.46,340.463 7417.97,417.974 "
      id="polygon946"
      transform="matrix(0.10000029,0,0,0.10000029,-20.063524,1001.7422)"
    />
    <polygon
      fill="#80795b"
      points="7659.67,340.463 7659.67,659.674 7582.02,582.025 7582.02,417.974 "
      id="polygon948"
      transform="matrix(0.10000029,0,0,0.10000029,-20.063524,1001.7422)"
    />
    <polygon
      fill="#5e5b43"
      points="7659.67,659.674 7340.46,659.674 7417.97,582.025 7582.02,582.025 "
      id="polygon950"
      transform="matrix(0.10000029,0,0,0.10000029,-20.063524,1001.7422)"
    />
    <polygon
      fill="#9a916c"
      points="7417.97,582.025 7340.46,659.674 7340.46,340.463 7417.97,417.974 "
      id="polygon952"
      transform="matrix(0.10000029,0,0,0.10000029,-20.063524,1001.7422)"
    />
    <path
      id="polygon1216"
      d="m 702.26158,1026.4723 51.75796,0.061 0.22375,50.4763 -51.75796,0.2646 -44.84062,0.062 -51.75797,-0.2646 0.24417,-50.4966 51.73762,-0.062 -0.0208,-1.4852 44.41338,-0.041 m 0,-20.1823 -44.59649,0.041 -3.11775,-3.0518 -69.28725,-10e-4 -5.22618,5.2597 0.13615,89.3176 5.19816,5.423 h 69.17916 l 4.47893,-4.4231 41.61811,-0.2719 4.60741,4.695 h 69.47953 l 5.17118,-4.663 0.19719,-90.7392 -5.16496,-4.5981 -69.68298,10e-4 z"
      display="inline"
      fill="#262626"
      fill-opacity="1"
      stroke="none"
      stroke-width="0"
    />
    <path
      d="m 651.93075,1041.7485 v 31.7647 h -43.66763 l -0.0958,-43.2736 H 751.7988 l -0.20073,43.5038 -43.50377,-0.2302 -0.23021,-31.3045"
      id="path10059"
      display="inline"
      fill="none"
      stroke="#b59e40"
      stroke-width="7.87404"
      stroke-linecap="butt"
      stroke-linejoin="miter"
      stroke-miterlimit="4"
      stroke-dasharray="none"
      stroke-opacity="1"
    />
    <polygon
      fill="#404040"
      points="782.747,0 217.113,0 0,217.113 0,782.747 217.113,1000 782.747,1000 1000,782.747 1000,217.113 "
      id="polygon826"
      transform="matrix(0,0.10000029,-0.10000029,0,280.62434,200.97101)"
    />
    <rect
      height="31.921192"
      x="235.0174"
      y="-246.57793"
      width="31.921192"
      fill="#8d8c8c"
      id="rect830"
      transform="rotate(90)"
      stroke-width="0.1"
    />
    <rect
      height="16.418947"
      x="242.76852"
      y="-238.8268"
      width="16.418947"
      fill="#8c8663"
      id="rect832"
      transform="rotate(90)"
      stroke-width="0.1"
    />
    <polygon
      fill="#b8af82"
      points="659.674,340.463 340.463,340.463 417.974,417.974 582.025,417.974 "
      id="polygon834"
      transform="matrix(0,0.10000029,-0.10000029,0,280.62434,200.97101)"
    />
    <polygon
      fill="#80795b"
      points="659.674,659.674 582.025,582.025 582.025,417.974 659.674,340.463 "
      id="polygon836"
      transform="matrix(0,0.10000029,-0.10000029,0,280.62434,200.97101)"
    />
    <polygon
      fill="#5e5b43"
      points="340.463,659.674 417.974,582.025 582.025,582.025 659.674,659.674 "
      id="polygon838"
      transform="matrix(0,0.10000029,-0.10000029,0,280.62434,200.97101)"
    />
    <polygon
      fill="#9a916c"
      points="340.463,659.674 340.463,340.463 417.974,417.974 417.974,582.025 "
      id="polygon840"
      transform="matrix(0,0.10000029,-0.10000029,0,280.62434,200.97101)"
    />
    <polygon
      fill="#404040"
      points="1782.75,0 1217.11,0 1000,217.113 1000,782.747 1217.11,1000 1782.75,1000 2000,782.747 2000,217.113 "
      id="polygon842"
      transform="matrix(0,0.10000029,-0.10000029,0,280.62434,200.97101)"
    />
    <rect
      height="31.921192"
      x="335.0174"
      y="-246.57793"
      width="31.921192"
      fill="#8d8c8c"
      id="rect846"
      transform="rotate(90)"
      stroke-width="0.1"
    />
    <rect
      height="16.418947"
      x="342.76843"
      y="-238.8268"
      width="16.418947"
      fill="#8c8663"
      id="rect848"
      transform="rotate(90)"
      stroke-width="0.1"
    />
    <polygon
      fill="#b8af82"
      points="1659.67,340.463 1340.46,340.463 1417.97,417.974 1582.03,417.974 "
      id="polygon850"
      transform="matrix(0,0.10000029,-0.10000029,0,280.62434,200.97101)"
    />
    <polygon
      fill="#80795b"
      points="1659.67,659.674 1582.03,582.025 1582.03,417.974 1659.67,340.463 "
      id="polygon852"
      transform="matrix(0,0.10000029,-0.10000029,0,280.62434,200.97101)"
    />
    <polygon
      fill="#5e5b43"
      points="1340.46,659.674 1417.97,582.025 1582.03,582.025 1659.67,659.674 "
      id="polygon854"
      transform="matrix(0,0.10000029,-0.10000029,0,280.62434,200.97101)"
    />
    <polygon
      fill="#9a916c"
      points="1340.46,659.674 1340.46,340.463 1417.97,417.974 1417.97,582.025 "
      id="polygon856"
      transform="matrix(0,0.10000029,-0.10000029,0,280.62434,200.97101)"
    />
    <polygon
      fill="#404040"
      points="2782.75,0 2217.11,0 2000,217.113 2000,782.747 2217.11,1000 2782.75,1000 3000,782.747 3000,217.113 "
      id="polygon858"
      transform="matrix(0,0.10000029,-0.10000029,0,280.62434,200.97101)"
    />
    <rect
      height="31.921192"
      x="435.01767"
      y="-246.57793"
      width="31.921192"
      fill="#8d8c8c"
      id="rect862"
      transform="rotate(90)"
      stroke-width="0.1"
    />
    <rect
      height="16.418947"
      x="442.76871"
      y="-238.8268"
      width="16.418947"
      fill="#8c8663"
      id="rect864"
      transform="rotate(90)"
      stroke-width="0.1"
    />
    <polygon
      fill="#b8af82"
      points="2659.67,340.463 2340.46,340.463 2417.97,417.974 2582.03,417.974 "
      id="polygon866"
      transform="matrix(0,0.10000029,-0.10000029,0,280.62434,200.97101)"
    />
    <polygon
      fill="#80795b"
      points="2659.67,659.674 2582.03,582.025 2582.03,417.974 2659.67,340.463 "
      id="polygon868"
      transform="matrix(0,0.10000029,-0.10000029,0,280.62434,200.97101)"
    />
    <polygon
      fill="#5e5b43"
      points="2340.46,659.674 2417.97,582.025 2582.03,582.025 2659.67,659.674 "
      id="polygon870"
      transform="matrix(0,0.10000029,-0.10000029,0,280.62434,200.97101)"
    />
    <polygon
      fill="#9a916c"
      points="2340.46,659.674 2340.46,340.463 2417.97,417.974 2417.97,582.025 "
      id="polygon872"
      transform="matrix(0,0.10000029,-0.10000029,0,280.62434,200.97101)"
    />
    <polygon
      fill="#404040"
      points="3782.75,0 3217.11,0 3000,217.113 3000,782.747 3217.11,1000 3782.75,1000 4000,782.747 4000,217.113 "
      id="polygon874"
      transform="matrix(0,0.10000029,-0.10000029,0,280.62434,200.97101)"
    />
    <rect
      height="31.921192"
      x="535.01794"
      y="-246.57793"
      width="31.921192"
      fill="#8d8c8c"
      id="rect878"
      transform="rotate(90)"
      stroke-width="0.1"
    />
    <rect
      height="16.418947"
      x="542.76898"
      y="-238.8268"
      width="16.418947"
      fill="#8c8663"
      id="rect880"
      transform="rotate(90)"
      stroke-width="0.1"
    />
    <polygon
      fill="#b8af82"
      points="3659.67,340.463 3340.46,340.463 3417.97,417.974 3582.03,417.974 "
      id="polygon882"
      transform="matrix(0,0.10000029,-0.10000029,0,280.62434,200.97101)"
    />
    <polygon
      fill="#80795b"
      points="3659.67,659.674 3582.03,582.025 3582.03,417.974 3659.67,340.463 "
      id="polygon884"
      transform="matrix(0,0.10000029,-0.10000029,0,280.62434,200.97101)"
    />
    <polygon
      fill="#5e5b43"
      points="3340.46,659.674 3417.97,582.025 3582.03,582.025 3659.67,659.674 "
      id="polygon886"
      transform="matrix(0,0.10000029,-0.10000029,0,280.62434,200.97101)"
    />
    <polygon
      fill="#9a916c"
      points="3340.46,659.674 3340.46,340.463 3417.97,417.974 3417.97,582.025 "
      id="polygon888"
      transform="matrix(0,0.10000029,-0.10000029,0,280.62434,200.97101)"
    />
    <rect
      height="38.76931"
      x="231.58638"
      y="-250.00896"
      id="connector0pin"
      width="38.76931"
      gorn="0.0.1"
      fill="none"
      transform="rotate(90)"
      stroke-width="0.1"
    />
    <rect
      height="38.76931"
      x="331.58636"
      y="-250.00896"
      id="connector1pin"
      width="38.76931"
      gorn="0.0.10"
      fill="none"
      transform="rotate(90)"
      stroke-width="0.1"
    />
    <rect
      height="38.76931"
      x="431.58664"
      y="-250.00896"
      id="connector2pin"
      width="38.76931"
      gorn="0.0.19"
      fill="none"
      transform="rotate(90)"
      stroke-width="0.1"
    />
    <rect
      height="38.76931"
      x="531.58691"
      y="-250.00896"
      id="connector3pin"
      width="38.76931"
      gorn="0.0.28"
      fill="none"
      transform="rotate(90)"
      stroke-width="0.1"
    />
    <rect
      height="38.76931"
      x="410.55273"
      y="1032.3577"
      id="connector4pin"
      width="38.76931"
      gorn="0.0.37"
      fill="none"
      stroke-width="0.1"
    />
    <rect
      height="38.76931"
      x="510.55301"
      y="1032.3577"
      id="connector5pin"
      width="38.76931"
      gorn="0.0.46"
      fill="none"
      stroke-width="0.1"
    />
    <rect
      height="38.76931"
      x="610.55328"
      y="1032.3577"
      id="connector6pin"
      width="38.76931"
      gorn="0.0.55"
      fill="none"
      stroke-width="0.1"
    />
    <rect
      height="38.76931"
      x="710.55359"
      y="1032.3577"
      id="connector7pin"
      width="38.76931"
      gorn="0.0.64"
      fill="none"
      stroke-width="0.1"
    />
    <rect
      height="38.76931"
      x="132.0507"
      y="-949.76959"
      id="connector8pin"
      width="38.76931"
      gorn="0.0.73"
      fill="none"
      transform="rotate(90)"
      stroke-width="0.1"
    />
    <rect
      height="38.76931"
      x="231.87642"
      y="-949.76959"
      id="connector9pin"
      width="38.76931"
      gorn="0.0.82"
      fill="none"
      transform="rotate(90)"
      stroke-width="0.1"
    />
    <rect
      height="38.76931"
      x="328.92395"
      y="-949.76959"
      id="connector10pin"
      width="38.76931"
      gorn="0.0.91"
      fill="none"
      transform="rotate(90)"
      stroke-width="0.1"
    />
    <rect
      height="38.76931"
      x="424.51862"
      y="-949.76959"
      id="connector11pin"
      width="38.76931"
      gorn="0.0.100"
      fill="none"
      transform="rotate(90)"
      stroke-width="0.1"
    />
    <rect
      height="38.76931"
      x="524.20013"
      y="-949.76959"
      id="connector12pin"
      width="38.76931"
      gorn="0.0.109"
      fill="none"
      transform="rotate(90)"
      stroke-width="0.1"
    />
  </g>
</svg>
