<?xml version='1.0' encoding='UTF-8' standalone='no'?>
<svg
  xmlns:dc="http://purl.org/dc/elements/1.1/"
  xmlns:cc="http://creativecommons.org/ns#"
  xmlns:rdf="http://www.w3.org/1999/02/22-rdf-syntax-ns#"
  xmlns:svg="http://www.w3.org/2000/svg"
  xmlns="http://www.w3.org/2000/svg"
  width="55.11377mm"
  viewBox="0 0 2169.834 1650.8313"
  id="svg889"
  y="0in"
  gorn="0"
  x="0in"
  height="41.931099mm"
  version="1.2">
  <metadata
    id="metadata50">
    <rdf:RDF>
      <cc:Work
        rdf:about="">
        <dc:format>image/svg+xml</dc:format>
        <dc:type
          rdf:resource="http://purl.org/dc/dcmitype/StillImage"
        />
        <dc:title/>
      </cc:Work>
    </rdf:RDF>
  </metadata>
  <defs
    id="defs48"
  />
  <g
    id="breadboard">
    <rect
      width="38.770786"
      fill="none"
      id="connector4pin"
      gorn="0.1.0.0.0.0"
      y="1009.9988"
      x="88.743546"
      height="38.770786"
      stroke-width="0.0999999"
    />
    <rect
      width="29.976265"
      id="rect165"
      gorn="0.1.0.0.0.1"
      y="1006.7488"
      x="93.047546"
      height="31.341364"
      fill="#c0c0c0"
      fill-opacity="1"
      stroke="none"
      stroke-width="0.0999999"
    />
    <rect
      width="38.770786"
      fill="none"
      id="connector3pin"
      gorn="0.1.0.0.0.2"
      y="909.99884"
      x="88.708504"
      height="38.770786"
      stroke-width="0.0999999"
    />
    <rect
      width="29.976265"
      id="rect167"
      gorn="0.1.0.0.0.3"
      y="908.83221"
      x="93.012505"
      height="31.341364"
      fill="#c0c0c0"
      fill-opacity="1"
      stroke="none"
      stroke-width="0.0999999"
    />
    <rect
      width="38.654354"
      fill="none"
      id="connector2pin"
      gorn="0.1.0.0.0.4"
      y="809.99902"
      x="88.743553"
      height="38.654354"
      stroke-width="0.0999999"
    />
    <rect
      width="29.976265"
      id="rect169"
      gorn="0.1.0.0.0.5"
      y="809.87396"
      x="93.047554"
      height="31.341364"
      fill="#c0c0c0"
      fill-opacity="1"
      stroke="none"
      stroke-width="0.0999999"
    />
    <rect
      width="38.770786"
      fill="none"
      id="connector1pin"
      gorn="0.1.0.0.0.6"
      y="709.99908"
      x="88.708504"
      height="38.770786"
      stroke-width="0.0999999"
    />
    <rect
      width="29.976265"
      id="rect171"
      gorn="0.1.0.0.0.7"
      y="710.91577"
      x="93.012505"
      height="31.341364"
      fill="#c0c0c0"
      fill-opacity="1"
      stroke="none"
      stroke-width="0.0999999"
    />
    <rect
      width="38.770786"
      fill="none"
      id="connector0pin"
      gorn="0.1.0.0.0.8"
      y="609.59296"
      x="88.708504"
      height="38.770786"
      stroke-width="0.0999999"
    />
    <rect
      width="29.976265"
      id="rect4096"
      gorn="0.1.0.0.0.9"
      y="613.23334"
      x="93.01281"
      height="31.341364"
      fill="#c0c0c0"
      fill-opacity="1"
      stroke="none"
      stroke-width="0.0999999"
    />
    <path
      id="path2014"
      gorn="0.1.0.1.0.0"
      d="M 210.57489,612.05636 H 186.3643 V 535.13614 H 119.41104 L 94.091481,558.15391 69.692656,535.13614 H 1.672215 V 1113.9522 H 186.3643 v -75.5443 h 24.21059 z m -54.42296,-32.93425 v 92.12225 H 56.135798 V 637.0037 H 36.462173 v -23.62057 h 19.673625 v -34.26102 z m 0,100.01614 v 92.12229 H 56.135798 V 737.01988 H 36.462173 v -23.62061 h 19.673625 v -34.26102 z m 0,99.99583 v 92.12229 H 56.135798 V 837.01566 H 36.462173 V 813.3951 h 19.673625 v -34.26102 z m 0,99.99579 v 92.12229 H 56.135798 V 937.01149 H 36.462173 v -23.62056 h 19.673625 v -34.26106 z m 0,99.99582 V 1071.248 H 56.135798 v -34.2407 H 36.462173 v -23.6206 h 19.673625 v -34.26101 z"
      display="inline"
      fill="#ffffff"
      fill-opacity="1"
      stroke="#a4a4a4"
      stroke-width="3.34443"
      stroke-linecap="round"
      stroke-miterlimit="4"
      stroke-dasharray="none"
      stroke-opacity="1"
    />
    <path
      id="path17738"
      gorn="0.1.0.1.0.1.0"
      d="m 123.77299,807.38869 v 36.82196 h 467.54517 c 68.82681,0 86.33029,86.43951 170.1333,86.24412 l 195.69599,0.005 4e-5,-4e-5 v -36.45886 l -4e-5,-4e-5 -195.69599,-0.18897 c -63.4441,0 -83.80301,-86.23927 -170.34976,-86.23927 z"
      display="inline"
      fill="#ffff00"
      fill-opacity="1"
      stroke="#c8c800"
      stroke-width="3.34646"
      stroke-linecap="butt"
      stroke-linejoin="miter"
      stroke-miterlimit="4"
      stroke-dasharray="none"
      stroke-opacity="1"
    />
    <path
      id="path163"
      gorn="0.1.0.1.0.1.1"
      d="m 956.93099,720.79364 v 36.45645 l -587.09471,4e-5 c -145.01817,0 -142.3738,-109.88991 -246.06325,-109.88991 l -4e-5,-36.45649 c 125.77627,0 116.80451,109.88991 246.06329,109.88991 z"
      fill="#0000e8"
      stroke="#0000b6"
      stroke-width="2.91345"
      stroke-linecap="round"
    />
    <path
      id="rect6726"
      gorn="0.1.0.1.0.1.2"
      d="m 956.93099,764.09075 v 36.45649 l -587.09471,4e-5 c -135.59818,0 -118.79903,-54.62706 -246.06325,-54.62706 l -4e-5,-36.45653 c 133.77465,0 119.57966,54.62706 246.06329,54.62706 z"
      fill="#ff5ae8"
      stroke="#ff2f92"
      stroke-width="2.91345"
      stroke-linecap="round"
    />
    <path
      id="rect6810"
      gorn="0.1.0.1.0.1.3"
      d="m 956.93099,850.69506 v 36.45649 l -587.55042,4e-5 c -109.36491,-0.24016 -137.09023,55.63375 -245.60754,55.63375 l -4e-5,-36.45653 c 97.39044,0 133.52268,-52.57573 245.9331,-55.63379 195.74163,2.7e-4 587.2249,4e-5 587.2249,4e-5 z"
      display="inline"
      fill="#ff9300"
      stroke="#c57100"
      stroke-width="2.91345"
      stroke-linecap="round"
    />
    <path
      id="path15561"
      gorn="0.1.0.1.0.1.4"
      d="m 369.70597,930.41134 c -108.49062,0 -118.19155,111.20466 -245.93298,111.20466 v -36.8219 c 114.01853,0 119.62313,-111.11874 245.9331,-111.11874 H 591.1017 c 69.62527,0 86.54675,-86.24387 170.34976,-86.24387 l 195.47949,-0.005 4e-5,4e-5 v 36.4565 l -4e-5,3e-5 -195.47949,0.18898 c -64.27177,0 -83.80301,86.23899 -170.34976,86.23797 z"
      display="inline"
      fill="#ff0000"
      fill-opacity="1"
      stroke="#d20202"
      stroke-width="3.34645"
      stroke-linecap="butt"
      stroke-linejoin="miter"
      stroke-miterlimit="4"
      stroke-dasharray="none"
      stroke-opacity="1"
    />
    <path
      id="path31255"
      gorn="0.1.0.1.0.2.0"
      d="m 1097.5979,483.8938 -63.802,63.80201 v 555.98899 l 62.4999,62.4999 h 91.1457 V 483.8938 Z"
      fill="#0ab5ff"
      fill-opacity="1"
      stroke="#0aaaff"
      stroke-width="3.937"
      stroke-linecap="butt"
      stroke-linejoin="miter"
      stroke-miterlimit="4"
      stroke-dasharray="none"
      stroke-opacity="1"
    />
    <rect
      width="570.6142"
      id="rect31121"
      y="-1159.6373"
      gorn="0.1.0.1.0.2.1.0"
      x="539.96228"
      ry="18.67601"
      height="204.50586"
      fill="#0ab5ff"
      fill-opacity="1"
      stroke="#0aaaff"
      stroke-width="3.937"
      stroke-linecap="round"
      stroke-miterlimit="4"
      stroke-dasharray="none"
      stroke-opacity="1"
      transform="rotate(90)"
    />
    <circle
      r="550.20117"
      id="pins"
      gorn="0.1.0.1.0.3.0.0"
      cy="-1618.6487"
      cx="825.41565"
      display="inline"
      fill="#d6d6d6"
      fill-opacity="1"
      stroke="#a4a4a4"
      stroke-width="1.9685"
      stroke-linecap="round"
      stroke-miterlimit="4"
      stroke-dasharray="none"
      stroke-opacity="1"
      transform="rotate(90)"
    />
    <path
      id="path5709"
      gorn="0.1.0.1.0.3.1"
      d="m 1464.256,298.10304 0.083,23.11195 c -82.516,19.39048 -200.8072,96.23739 -254.1296,173.09549 l -28.4017,-0.63071 c -20.7415,27.38178 -38.9281,56.43718 -54.3212,87.03604 l -116.1498,0.14173 v 488.89166 l 115.926,0.4677 c 15.3055,30.7181 33.2351,60.032 53.4871,86.7919 l 29.4596,-0.9154 c 53.3225,76.858 171.5932,153.7051 254.1094,173.0956 l -0.039,23.6002 c 5.7139,1.6831 11.4744,3.2638 17.2526,4.7607 v 155.1512 c 0,76.1022 61.6947,137.1458 137.7969,137.1458 76.1021,0 137.7942,-61.6948 137.7968,-137.797 v -154.5407 c 6.3355,-1.6358 12.6151,-3.3543 18.8599,-5.2083 v -23.112 c 153.3985,-45.3743 288.242,-178.9537 333.0073,-308.5119 l 24.2106,-0.1614 c 23.0281,-60.62524 35.6445,-126.36638 35.6445,-195.06815 0,-68.08803 -13.1643,-135.04193 -36.6007,-195.47505 l -23.2544,-0.24409 C 2064.2246,500.16878 1929.3811,366.58934 1775.9825,321.21499 v -22.56265 c -6.1926,-1.91654 -12.5795,-3.58976 -18.8546,-5.28968 l -0.01,-154.58151 c 0,-76.10216 -61.6947,-137.79689999 -137.7968,-137.79689999 -76.1022,0 -137.8012,61.04370099 -137.7969,137.14582999 l 0.01,155.23258 c -5.738,1.48661 -11.4909,3.08306 -17.2817,4.74038 z m 233.8254,-159.26087 c 0,43.49113 -35.2645,78.7438 -78.7556,78.73526 -43.4832,-0.003 -78.7326,-35.25208 -78.7353,-78.73526 0,-43.483199 35.2521,-78.732614 78.7353,-78.735272 43.4911,-0.0086 78.7529,35.244136 78.7556,78.735272 z m 0,1373.14703 c 0,43.491 -35.2645,78.7437 -78.7556,78.7352 -43.4832,0 -78.7326,-35.2521 -78.7353,-78.7352 0,-43.4832 35.2521,-78.7327 78.7353,-78.7354 43.4911,-0.01 78.7529,35.2441 78.7556,78.7354 z"
      display="inline"
      fill="#d6d6d6"
      fill-opacity="1"
      stroke="#a4a4a4"
      stroke-width="1.9685"
      stroke-linecap="butt"
      stroke-linejoin="miter"
      stroke-miterlimit="4"
      stroke-dasharray="none"
      stroke-opacity="1"
    />
    <path
      id="path3100"
      gorn="0.1.0.1.0.3.2"
      d="m 1618.6488,848.81742 a 23.401842,23.401842 0 0 1 -23.4019,-23.40182 23.401842,23.401842 0 0 1 23.4019,-23.40182 23.401842,23.401842 0 0 1 23.4018,23.40182 23.401842,23.401842 0 0 1 -23.4018,23.40182 z"
      fill="#a4a4a4"
      fill-opacity="1"
      stroke="#828282"
      stroke-width="1.9685"
      stroke-linecap="round"
    />
    <path
      id="path3985"
      gorn="0.1.0.1.0.3.3"
      d="m 1438.9615,945.49699 a 23.401842,23.401842 0 0 1 -23.4018,-23.40182 23.401842,23.401842 0 0 1 23.4018,-23.40182 23.401842,23.401842 0 0 1 23.4018,23.40182 23.401842,23.401842 0 0 1 -23.4018,23.40182 z"
      fill="#a4a4a4"
      fill-opacity="1"
      stroke="#828282"
      stroke-width="1.9685"
      stroke-linecap="round"
    />
    <path
      id="path3987"
      gorn="0.1.0.1.0.3.4"
      d="m 1599.1966,1074.9193 a 23.401842,23.401842 0 0 1 -23.4019,-23.4018 23.401842,23.401842 0 0 1 23.4019,-23.4018 23.401842,23.401842 0 0 1 23.4018,23.4018 23.401842,23.401842 0 0 1 -23.4018,23.4018 z"
      fill="#a4a4a4"
      fill-opacity="1"
      stroke="#828282"
      stroke-width="1.9685"
      stroke-linecap="round"
    />
    <path
      id="path3989"
      gorn="0.1.0.1.0.3.5"
      d="m 1831.1669,1064.1717 a 23.401842,23.401842 0 0 1 -23.4018,-23.4019 23.401842,23.401842 0 0 1 23.4018,-23.4018 23.401842,23.401842 0 0 1 23.4019,23.4018 23.401842,23.401842 0 0 1 -23.4019,23.4019 z"
      fill="#a4a4a4"
      fill-opacity="1"
      stroke="#828282"
      stroke-width="1.9685"
      stroke-linecap="round"
      stroke-miterlimit="4"
      stroke-dasharray="none"
    />
    <circle
      r="174.72942"
      id="path4013"
      gorn="0.1.0.1.0.3.6.0"
      cy="-1931.7238"
      cx="825.04938"
      display="inline"
      fill="none"
      fill-opacity="1"
      stroke="#828282"
      stroke-width="1.9685"
      stroke-linecap="round"
      stroke-miterlimit="4"
      stroke-dasharray="none"
      stroke-opacity="1"
      transform="rotate(90)"
    />
    <circle
      r="154.47377"
      id="circle4053"
      gorn="0.1.0.1.0.3.7.0"
      cy="-1931.7238"
      cx="825.04938"
      fill="#a4a4a4"
      fill-opacity="1"
      stroke="#828282"
      stroke-width="1.9685"
      stroke-linecap="round"
      stroke-miterlimit="4"
      stroke-dasharray="none"
      stroke-opacity="1"
      transform="rotate(90)"
    />
    <circle
      r="145.66913"
      id="path66660"
      gorn="0.1.0.1.0.4.0.0"
      cy="-1931.7188"
      cx="825.04553"
      fill="#ffffff"
      fill-opacity="1"
      stroke="none"
      stroke-width="3.95129"
      stroke-linecap="round"
      stroke-miterlimit="4"
      stroke-dasharray="none"
      stroke-opacity="1"
      transform="rotate(90)"
    />
    <circle
      r="98.425079"
      id="path45592"
      gorn="0.1.0.1.0.4.1.0"
      cy="-1931.7188"
      cx="825.04553"
      display="inline"
      fill="#cfb175"
      fill-opacity="1"
      stroke="#958056"
      stroke-width="3.937"
      stroke-linecap="round"
      stroke-miterlimit="4"
      stroke-dasharray="none"
      stroke-opacity="1"
      transform="rotate(90)"
    />
    <path
      id="path59310"
      gorn="0.1.0.1.0.4.2"
      d="m 1990.948,903.53035 -0.122,-27.81166 a 77.930089,77.930089 0 0 1 -59.1023,27.26237 77.930089,77.930089 0 0 1 -59.143,-28.21855 l -0.083,29.03233 c 16.4494,12.35475 36.885,19.67363 59.0412,19.67363 22.3151,0 42.898,-7.42235 59.4075,-19.93812 z m -0.5901,-128.70264 -0.1221,-28.7882 c -16.3882,-12.19439 -36.6978,-19.40919 -58.6953,-19.40919 -21.9707,0 -42.2563,7.18054 -58.6343,19.34813 l -0.083,29.09339 a 77.930089,77.930089 0 0 1 58.8989,-27.95406 77.930089,77.930089 0 0 1 58.6343,27.70993 z"
      display="inline"
      fill="#958056"
      stroke-width="3.86494"
      stroke-linecap="round"
    />
    <path
      id="path64920"
      gorn="0.1.0.1.0.4.3"
      d="m 1931.7188,903.17586 c -22.5165,0 -42.9305,-9.64696 -57.1883,-24.88729 l 0.03,-105.77405 c 14.2925,-15.73026 34.1083,-25.72155 57.0363,-25.72155 21.9578,0 42.6139,9.87192 56.8077,24.45529 l 0.4862,107.14385 c -14.2045,14.68046 -35.1311,24.78375 -57.172,24.78375 z"
      fill="#cfb175"
      stroke="#958056"
      stroke-width="3.937"
      stroke-linecap="round"
    />
  </g>
</svg>
